DinishExpanded-Bold.ufo
<glyph name="dollar" format="2">
  <advance width="547"/>
  <unicode hex="0024"/>
  <outline>
    <contour>
      <point x="317" y="33" type="curve"/>
      <point x="317" y="-61" type="line"/>
      <point x="226" y="-61" type="line"/>
      <point x="226" y="32" type="line"/>
      <point x="165" y="38"/>
      <point x="118" y="58"/>
      <point x="84" y="93" type="curve" smooth="yes"/>
      <point x="50" y="127"/>
      <point x="32" y="173"/>
      <point x="29" y="232" type="curve"/>
      <point x="146" y="232" type="line"/>
      <point x="150" y="199"/>
      <point x="162" y="175"/>
      <point x="183" y="161" type="curve" smooth="yes"/>
      <point x="203" y="146"/>
      <point x="234" y="139"/>
      <point x="275" y="139" type="curve" smooth="yes"/>
      <point x="312" y="139"/>
      <point x="341" y="146"/>
      <point x="361" y="160" type="curve" smooth="yes"/>
      <point x="380" y="173"/>
      <point x="390" y="193"/>
      <point x="390" y="220" type="curve" smooth="yes"/>
      <point x="390" y="244"/>
      <point x="384" y="263"/>
      <point x="371" y="276" type="curve" smooth="yes"/>
      <point x="358" y="289"/>
      <point x="336" y="297"/>
      <point x="307" y="300" type="curve" smooth="yes"/>
      <point x="230" y="310" type="line" smooth="yes"/>
      <point x="107" y="327"/>
      <point x="45" y="386"/>
      <point x="45" y="488" type="curve" smooth="yes"/>
      <point x="45" y="541"/>
      <point x="61" y="584"/>
      <point x="93" y="617" type="curve" smooth="yes"/>
      <point x="124" y="650"/>
      <point x="169" y="671"/>
      <point x="226" y="678" type="curve"/>
      <point x="226" y="758" type="line"/>
      <point x="317" y="758" type="line"/>
      <point x="317" y="679" type="line"/>
      <point x="374" y="673"/>
      <point x="418" y="654"/>
      <point x="451" y="622" type="curve" smooth="yes"/>
      <point x="483" y="589"/>
      <point x="501" y="545"/>
      <point x="505" y="490" type="curve"/>
      <point x="385" y="490" type="line"/>
      <point x="382" y="519"/>
      <point x="372" y="540"/>
      <point x="354" y="554" type="curve" smooth="yes"/>
      <point x="335" y="567"/>
      <point x="308" y="574"/>
      <point x="272" y="574" type="curve" smooth="yes"/>
      <point x="239" y="574"/>
      <point x="213" y="568"/>
      <point x="196" y="555" type="curve" smooth="yes"/>
      <point x="178" y="542"/>
      <point x="169" y="523"/>
      <point x="169" y="498" type="curve" smooth="yes"/>
      <point x="169" y="476"/>
      <point x="176" y="459"/>
      <point x="191" y="446" type="curve" smooth="yes"/>
      <point x="206" y="433"/>
      <point x="229" y="425"/>
      <point x="262" y="420" type="curve" smooth="yes"/>
      <point x="342" y="409" type="line" smooth="yes"/>
      <point x="457" y="392"/>
      <point x="515" y="332"/>
      <point x="515" y="229" type="curve" smooth="yes"/>
      <point x="515" y="172"/>
      <point x="498" y="127"/>
      <point x="463" y="94" type="curve" smooth="yes"/>
      <point x="428" y="60"/>
      <point x="380" y="40"/>
    </contour>
  </outline>
</glyph>
<glyph name="parenleft" format="2">
  <advance width="330"/>
  <unicode hex="0028"/>
  <outline>
    <contour>
      <point x="47" y="337" type="curve" smooth="yes"/>
      <point x="47" y="417"/>
      <point x="59" y="493"/>
      <point x="84" y="564" type="curve" smooth="yes"/>
      <point x="108" y="635"/>
      <point x="144" y="699"/>
      <point x="191" y="758" type="curve"/>
      <point x="285" y="758" type="line"/>
      <point x="248" y="697"/>
      <point x="221" y="630"/>
      <point x="202" y="559" type="curve" smooth="yes"/>
      <point x="183" y="487"/>
      <point x="173" y="413"/>
      <point x="173" y="336" type="curve" smooth="yes"/>
      <point x="173" y="259"/>
      <point x="182" y="185"/>
      <point x="201" y="114" type="curve" smooth="yes"/>
      <point x="220" y="42"/>
      <point x="247" y="-25"/>
      <point x="284" y="-86" type="curve"/>
      <point x="190" y="-86" type="line"/>
      <point x="143" y="-25"/>
      <point x="108" y="41"/>
      <point x="84" y="112" type="curve" smooth="yes"/>
      <point x="59" y="183"/>
      <point x="47" y="258"/>
    </contour>
  </outline>
</glyph>
<glyph name="slash" format="2">
  <advance width="455"/>
  <unicode hex="002F"/>
  <outline>
    <contour>
      <point x="302" y="712" type="line"/>
      <point x="410" y="712" type="line"/>
      <point x="154" y="-10" type="line"/>
      <point x="47" y="-10" type="line"/>
    </contour>
  </outline>
</glyph>
<glyph name="one.osf" format="2">
  <advance width="388"/>
  <unicode hex="0031"/>
  <outline>
    <contour>
      <point x="187" y="392" type="line"/>
      <point x="37" y="305" type="line"/>
      <point x="37" y="443" type="line"/>
      <point x="187" y="533" type="line"/>
      <point x="322" y="533" type="line"/>
      <point x="322" y="0" type="line"/>
      <point x="187" y="0" type="line"/>
    </contour>
  </outline>
</glyph>
<glyph name="one.tosf" format="2">
  <advance width="562"/>
  <unicode hex="0031"/>
  <outline>
    <contour>
      <point x="289" y="392" type="line"/>
      <point x="116" y="316" type="line"/>
      <point x="116" y="455" type="line"/>
      <point x="289" y="533" type="line"/>
      <point x="424" y="533" type="line"/>
      <point x="424" y="0" type="line"/>
      <point x="289" y="0" type="line"/>
    </contour>
  </outline>
</glyph>
<glyph name="two.tosf" format="2">
  <advance width="562"/>
  <unicode hex="0032"/>
  <outline>
    <contour>
      <point x="53" y="106" type="line"/>
      <point x="317" y="292" type="line" smooth="yes"/>
      <point x="351" y="316"/>
      <point x="378" y="356"/>
      <point x="378" y="379" type="qcurve" smooth="yes"/>
      <point x="378" y="388" type="line" smooth="yes"/>
      <point x="378" y="415"/>
      <point x="324" y="444"/>
      <point x="277" y="444" type="qcurve" smooth="yes"/>
      <point x="231" y="444"/>
      <point x="177" y="417"/>
      <point x="177" y="390" type="qcurve" smooth="yes"/>
      <point x="177" y="378" type="line"/>
      <point x="49" y="378" type="line"/>
      <point x="49" y="396" type="line" smooth="yes"/>
      <point x="49" y="461"/>
      <point x="172" y="539"/>
      <point x="279" y="539" type="qcurve" smooth="yes"/>
      <point x="351" y="539"/>
      <point x="457" y="502"/>
      <point x="513" y="434"/>
      <point x="513" y="390" type="qcurve" smooth="yes"/>
      <point x="513" y="380" type="line" smooth="yes"/>
      <point x="513" y="340"/>
      <point x="473" y="269"/>
      <point x="425" y="239" type="qcurve" smooth="yes"/>
      <point x="235" y="118" type="line"/>
      <point x="514" y="118" type="line"/>
      <point x="514" y="0" type="line"/>
      <point x="53" y="0" type="line"/>
    </contour>
  </outline>
</glyph>
<glyph name="four.tosf" format="2">
  <advance width="562"/>
  <unicode hex="0034"/>
  <outline>
    <contour>
      <point x="546" y="-57" type="line"/>
      <point x="482" y="-57" type="line"/>
      <point x="482" y="-168" type="line"/>
      <point x="347" y="-168" type="line"/>
      <point x="347" y="-57" type="line"/>
      <point x="27" y="-57" type="line"/>
      <point x="27" y="60" type="line"/>
      <point x="253" y="533" type="line"/>
      <point x="390" y="533" type="line"/>
      <point x="163" y="60" type="line"/>
      <point x="347" y="60" type="line"/>
      <point x="347" y="224" type="line"/>
      <point x="482" y="224" type="line"/>
      <point x="482" y="60" type="line"/>
      <point x="546" y="60" type="line"/>
    </contour>
  </outline>
</glyph>
<glyph name="five" format="2">
  <advance width="560"/>
  <unicode hex="0035"/>
  <outline>
    <contour>
      <point x="56" y="85"/>
      <point x="56" y="170" type="qcurve" smooth="yes"/>
      <point x="56" y="178" type="line"/>
      <point x="184" y="178" type="line"/>
      <point x="184" y="174" type="line" smooth="yes"/>
      <point x="184" y="142"/>
      <point x="237" y="102"/>
      <point x="281" y="102" type="qcurve" smooth="yes"/>
      <point x="331" y="102"/>
      <point x="382" y="160"/>
      <point x="382" y="212" type="qcurve" smooth="yes"/>
      <point x="382" y="244" type="line" smooth="yes"/>
      <point x="382" y="298"/>
      <point x="330" y="355"/>
      <point x="281" y="355" type="qcurve" smooth="yes"/>
      <point x="248" y="355"/>
      <point x="199" y="328"/>
      <point x="186" y="304" type="qcurve"/>
      <point x="69" y="304" type="line"/>
      <point x="69" y="707" type="line"/>
      <point x="493" y="707" type="line"/>
      <point x="493" y="592" type="line"/>
      <point x="184" y="592" type="line"/>
      <point x="184" y="427" type="line"/>
      <point x="235" y="465"/>
      <point x="309" y="465" type="qcurve" smooth="yes"/>
      <point x="406" y="465"/>
      <point x="514" y="351"/>
      <point x="514" y="249" type="qcurve" smooth="yes"/>
      <point x="514" y="210" type="line" smooth="yes"/>
      <point x="514" y="106"/>
      <point x="391" y="-11"/>
      <point x="280" y="-11" type="qcurve" smooth="yes"/>
      <point x="177" y="-11"/>
    </contour>
  </outline>
</glyph>
<glyph name="six" format="2">
  <advance width="582"/>
  <unicode hex="0036"/>
  <outline>
    <contour>
      <point x="51" y="204" type="curve" smooth="yes"/>
      <point x="51" y="224" type="line" smooth="yes"/>
      <point x="51" y="276"/>
      <point x="68" y="332"/>
      <point x="102" y="392" type="curve" smooth="yes"/>
      <point x="285" y="707" type="line"/>
      <point x="430" y="707" type="line"/>
      <point x="262" y="417" type="line"/>
      <point x="281" y="426"/>
      <point x="306" y="431"/>
      <point x="337" y="431" type="curve" smooth="yes"/>
      <point x="398" y="431"/>
      <point x="448" y="413"/>
      <point x="486" y="377" type="curve" smooth="yes"/>
      <point x="523" y="340"/>
      <point x="542" y="291"/>
      <point x="542" y="229" type="curve" smooth="yes"/>
      <point x="542" y="208" type="line" smooth="yes"/>
      <point x="542" y="140"/>
      <point x="520" y="87"/>
      <point x="476" y="48" type="curve" smooth="yes"/>
      <point x="431" y="9"/>
      <point x="371" y="-11"/>
      <point x="296" y="-11" type="curve" smooth="yes"/>
      <point x="219" y="-11"/>
      <point x="159" y="8"/>
      <point x="116" y="46" type="curve" smooth="yes"/>
      <point x="73" y="83"/>
      <point x="51" y="136"/>
    </contour>
    <contour>
      <point x="408" y="203" type="curve" smooth="yes"/>
      <point x="408" y="221" type="line" smooth="yes"/>
      <point x="408" y="252"/>
      <point x="398" y="277"/>
      <point x="378" y="294" type="curve" smooth="yes"/>
      <point x="358" y="311"/>
      <point x="331" y="319"/>
      <point x="296" y="319" type="curve" smooth="yes"/>
      <point x="261" y="319"/>
      <point x="234" y="311"/>
      <point x="215" y="294" type="curve" smooth="yes"/>
      <point x="195" y="277"/>
      <point x="185" y="253"/>
      <point x="185" y="222" type="curve" smooth="yes"/>
      <point x="185" y="203" type="line" smooth="yes"/>
      <point x="185" y="172"/>
      <point x="195" y="147"/>
      <point x="215" y="129" type="curve" smooth="yes"/>
      <point x="234" y="111"/>
      <point x="261" y="102"/>
      <point x="296" y="102" type="curve" smooth="yes"/>
      <point x="331" y="102"/>
      <point x="358" y="111"/>
      <point x="378" y="129" type="curve" smooth="yes"/>
      <point x="398" y="147"/>
      <point x="408" y="172"/>
    </contour>
  </outline>
</glyph>
<glyph name="nine.tosf" format="2">
  <advance width="562"/>
  <unicode hex="0039"/>
  <outline>
    <contour>
      <point x="315" y="115" type="line"/>
      <point x="283" y="101"/>
      <point x="241" y="100" type="qcurve" smooth="yes"/>
      <point x="149" y="100"/>
      <point x="36" y="211"/>
      <point x="36" y="303" type="qcurve" smooth="yes"/>
      <point x="36" y="325" type="line" smooth="yes"/>
      <point x="36" y="427"/>
      <point x="167" y="543"/>
      <point x="281" y="543" type="qcurve" smooth="yes"/>
      <point x="397" y="543"/>
      <point x="527" y="429"/>
      <point x="527" y="329" type="qcurve" smooth="yes"/>
      <point x="527" y="307" type="line" smooth="yes"/>
      <point x="526" y="227"/>
      <point x="474" y="139" type="qcurve" smooth="yes"/>
      <point x="292" y="-168" type="line"/>
      <point x="148" y="-168" type="line"/>
    </contour>
    <contour>
      <point x="392" y="264"/>
      <point x="392" y="310" type="qcurve" smooth="yes"/>
      <point x="392" y="330" type="line" smooth="yes"/>
      <point x="392" y="377"/>
      <point x="333" y="429"/>
      <point x="281" y="429" type="qcurve" smooth="yes"/>
      <point x="229" y="429"/>
      <point x="170" y="376"/>
      <point x="170" y="329" type="qcurve" smooth="yes"/>
      <point x="170" y="311" type="line" smooth="yes"/>
      <point x="170" y="264"/>
      <point x="229" y="212"/>
      <point x="281" y="212" type="qcurve" smooth="yes"/>
      <point x="333" y="212"/>
    </contour>
  </outline>
</glyph>
<glyph name="K" format="2">
  <advance width="694"/>
  <unicode hex="004B"/>
  <outline>
    <contour>
      <point x="314" y="326" type="line"/>
      <point x="195" y="197" type="line"/>
      <point x="195" y="0" type="line"/>
      <point x="60" y="0" type="line"/>
      <point x="60" y="707" type="line"/>
      <point x="195" y="707" type="line"/>
      <point x="195" y="364" type="line"/>
      <point x="496" y="707" type="line"/>
      <point x="668" y="707" type="line"/>
      <point x="404" y="422" type="line"/>
      <point x="688" y="0" type="line"/>
      <point x="525" y="0" type="line"/>
    </contour>
  </outline>
</glyph>
<glyph name="U" format="2">
  <advance width="692"/>
  <unicode hex="0055"/>
  <outline>
    <contour>
      <point x="131" y="57"/>
      <point x="60" y="175"/>
      <point x="60" y="254" type="qcurve" smooth="yes"/>
      <point x="60" y="707" type="line"/>
      <point x="195" y="707" type="line"/>
      <point x="195" y="258" type="line" smooth="yes"/>
      <point x="195" y="186"/>
      <point x="272" y="111"/>
      <point x="345" y="111" type="qcurve" smooth="yes"/>
      <point x="418" y="111"/>
      <point x="498" y="186"/>
      <point x="498" y="258" type="qcurve" smooth="yes"/>
      <point x="498" y="707" type="line"/>
      <point x="632" y="707" type="line"/>
      <point x="632" y="254" type="line" smooth="yes"/>
      <point x="632" y="175"/>
      <point x="561" y="57"/>
      <point x="431" y="-6"/>
      <point x="345" y="-6" type="qcurve" smooth="yes"/>
      <point x="260" y="-6"/>
    </contour>
  </outline>
</glyph>
<glyph name="c" format="2">
  <advance width="572"/>
  <unicode hex="0063"/>
  <outline>
    <contour>
      <point x="47" y="236" type="curve" smooth="yes"/>
      <point x="47" y="299" type="line" smooth="yes"/>
      <point x="47" y="378"/>
      <point x="69" y="439"/>
      <point x="112" y="480" type="curve" smooth="yes"/>
      <point x="155" y="521"/>
      <point x="214" y="542"/>
      <point x="290" y="542" type="curve" smooth="yes"/>
      <point x="365" y="542"/>
      <point x="423" y="525"/>
      <point x="464" y="490" type="curve" smooth="yes"/>
      <point x="505" y="455"/>
      <point x="526" y="406"/>
      <point x="526" y="345" type="curve" smooth="yes"/>
      <point x="526" y="339" type="line"/>
      <point x="402" y="339" type="line"/>
      <point x="402" y="343" type="line" smooth="yes"/>
      <point x="402" y="370"/>
      <point x="392" y="391"/>
      <point x="373" y="406" type="curve" smooth="yes"/>
      <point x="354" y="421"/>
      <point x="327" y="429"/>
      <point x="293" y="429" type="curve" smooth="yes"/>
      <point x="254" y="429"/>
      <point x="224" y="419"/>
      <point x="204" y="398" type="curve" smooth="yes"/>
      <point x="183" y="377"/>
      <point x="173" y="343"/>
      <point x="173" y="297" type="curve" smooth="yes"/>
      <point x="173" y="237" type="line" smooth="yes"/>
      <point x="173" y="190"/>
      <point x="183" y="157"/>
      <point x="204" y="136" type="curve" smooth="yes"/>
      <point x="224" y="115"/>
      <point x="255" y="104"/>
      <point x="296" y="104" type="curve" smooth="yes"/>
      <point x="329" y="104"/>
      <point x="354" y="111"/>
      <point x="373" y="126" type="curve" smooth="yes"/>
      <point x="392" y="141"/>
      <point x="401" y="161"/>
      <point x="401" y="186" type="curve" smooth="yes"/>
      <point x="401" y="190" type="line"/>
      <point x="525" y="190" type="line"/>
      <point x="525" y="186" type="line" smooth="yes"/>
      <point x="525" y="125"/>
      <point x="504" y="78"/>
      <point x="463" y="43" type="curve" smooth="yes"/>
      <point x="421" y="8"/>
      <point x="363" y="-9"/>
      <point x="290" y="-9" type="curve" smooth="yes"/>
      <point x="214" y="-9"/>
      <point x="155" y="12"/>
      <point x="112" y="54" type="curve" smooth="yes"/>
      <point x="69" y="95"/>
      <point x="47" y="156"/>
    </contour>
  </outline>
</glyph>
<glyph name="f" format="2">
  <advance width="376"/>
  <unicode hex="0066"/>
  <outline>
    <contour>
      <point x="234" y="559" type="curve" smooth="yes"/>
      <point x="234" y="532" type="line"/>
      <point x="349" y="532" type="line"/>
      <point x="349" y="443" type="line"/>
      <point x="234" y="443" type="line"/>
      <point x="234" y="0" type="line"/>
      <point x="109" y="0" type="line"/>
      <point x="109" y="443" type="line"/>
      <point x="37" y="443" type="line"/>
      <point x="37" y="532" type="line"/>
      <point x="109" y="532" type="line"/>
      <point x="109" y="554" type="line" smooth="yes"/>
      <point x="109" y="605"/>
      <point x="122" y="643"/>
      <point x="149" y="669" type="curve" smooth="yes"/>
      <point x="175" y="694"/>
      <point x="214" y="707"/>
      <point x="266" y="707" type="curve" smooth="yes"/>
      <point x="349" y="707" type="line"/>
      <point x="349" y="621" type="line"/>
      <point x="302" y="621" type="line" smooth="yes"/>
      <point x="277" y="621"/>
      <point x="260" y="616"/>
      <point x="250" y="607" type="curve" smooth="yes"/>
      <point x="239" y="597"/>
      <point x="234" y="581"/>
    </contour>
  </outline>
</glyph>
<glyph name="g" format="2">
  <advance width="584"/>
  <unicode hex="0067"/>
  <outline>
    <contour>
      <point x="59" y="-11" type="curve"/>
      <point x="181" y="-11" type="line"/>
      <point x="186" y="-29"/>
      <point x="197" y="-43"/>
      <point x="215" y="-53" type="curve" smooth="yes"/>
      <point x="232" y="-63"/>
      <point x="256" y="-68"/>
      <point x="286" y="-68" type="curve" smooth="yes"/>
      <point x="329" y="-68"/>
      <point x="360" y="-57"/>
      <point x="380" y="-36" type="curve" smooth="yes"/>
      <point x="396" y="-18"/>
      <point x="404" y="8"/>
      <point x="404" y="41" type="curve" smooth="yes"/>
      <point x="404" y="96" type="line"/>
      <point x="370" y="51"/>
      <point x="320" y="29"/>
      <point x="255" y="30" type="curve" smooth="yes"/>
      <point x="192" y="30"/>
      <point x="142" y="51"/>
      <point x="104" y="92" type="curve" smooth="yes"/>
      <point x="66" y="133"/>
      <point x="47" y="191"/>
      <point x="47" y="267" type="curve" smooth="yes"/>
      <point x="47" y="308" type="line" smooth="yes"/>
      <point x="47" y="382"/>
      <point x="66" y="440"/>
      <point x="104" y="481" type="curve" smooth="yes"/>
      <point x="142" y="522"/>
      <point x="192" y="542"/>
      <point x="253" y="542" type="curve" smooth="yes"/>
      <point x="315" y="542"/>
      <point x="365" y="520"/>
      <point x="404" y="475" type="curve"/>
      <point x="404" y="532" type="line"/>
      <point x="529" y="532" type="line"/>
      <point x="529" y="49" type="line" smooth="yes"/>
      <point x="529" y="-18"/>
      <point x="507" y="-71"/>
      <point x="463" y="-110" type="curve" smooth="yes"/>
      <point x="419" y="-149"/>
      <point x="358" y="-168"/>
      <point x="280" y="-168" type="curve" smooth="yes"/>
      <point x="213" y="-168"/>
      <point x="160" y="-155"/>
      <point x="121" y="-128" type="curve" smooth="yes"/>
      <point x="82" y="-101"/>
      <point x="61" y="-62"/>
    </contour>
    <contour>
      <point x="403" y="265" type="curve" smooth="yes"/>
      <point x="403" y="307" type="line" smooth="yes"/>
      <point x="403" y="344"/>
      <point x="393" y="374"/>
      <point x="372" y="396" type="curve" smooth="yes"/>
      <point x="351" y="418"/>
      <point x="322" y="429"/>
      <point x="286" y="429" type="curve" smooth="yes"/>
      <point x="251" y="429"/>
      <point x="223" y="419"/>
      <point x="204" y="398" type="curve" smooth="yes"/>
      <point x="184" y="377"/>
      <point x="174" y="345"/>
      <point x="174" y="302" type="curve" smooth="yes"/>
      <point x="174" y="272" type="line" smooth="yes"/>
      <point x="174" y="229"/>
      <point x="183" y="196"/>
      <point x="202" y="175" type="curve" smooth="yes"/>
      <point x="221" y="154"/>
      <point x="248" y="143"/>
      <point x="284" y="143" type="curve" smooth="yes"/>
      <point x="321" y="143"/>
      <point x="350" y="154"/>
      <point x="371" y="176" type="curve" smooth="yes"/>
      <point x="392" y="198"/>
      <point x="403" y="228"/>
    </contour>
  </outline>
</glyph>
<glyph name="m" format="2">
  <advance width="917"/>
  <unicode hex="006D"/>
  <outline>
    <contour>
      <point x="55" y="532" type="line"/>
      <point x="179" y="532" type="line"/>
      <point x="179" y="475" type="line"/>
      <point x="198" y="496"/>
      <point x="220" y="512"/>
      <point x="247" y="523" type="curve" smooth="yes"/>
      <point x="274" y="534"/>
      <point x="301" y="539"/>
      <point x="330" y="539" type="curve" smooth="yes"/>
      <point x="362" y="539"/>
      <point x="391" y="533"/>
      <point x="418" y="521" type="curve" smooth="yes"/>
      <point x="445" y="509"/>
      <point x="467" y="491"/>
      <point x="484" y="467" type="curve"/>
      <point x="529" y="515"/>
      <point x="586" y="539"/>
      <point x="655" y="539" type="curve" smooth="yes"/>
      <point x="720" y="539"/>
      <point x="771" y="521"/>
      <point x="808" y="484" type="curve" smooth="yes"/>
      <point x="844" y="447"/>
      <point x="862" y="397"/>
      <point x="862" y="332" type="curve" smooth="yes"/>
      <point x="862" y="0" type="line"/>
      <point x="735" y="0" type="line"/>
      <point x="735" y="306" type="line" smooth="yes"/>
      <point x="735" y="345"/>
      <point x="726" y="375"/>
      <point x="709" y="396" type="curve" smooth="yes"/>
      <point x="692" y="416"/>
      <point x="666" y="426"/>
      <point x="633" y="426" type="curve" smooth="yes"/>
      <point x="598" y="426"/>
      <point x="571" y="415"/>
      <point x="552" y="394" type="curve" smooth="yes"/>
      <point x="532" y="372"/>
      <point x="522" y="342"/>
      <point x="522" y="303" type="curve" smooth="yes"/>
      <point x="522" y="0" type="line"/>
      <point x="395" y="0" type="line"/>
      <point x="395" y="311" type="line" smooth="yes"/>
      <point x="395" y="349"/>
      <point x="386" y="378"/>
      <point x="369" y="397" type="curve" smooth="yes"/>
      <point x="352" y="416"/>
      <point x="327" y="426"/>
      <point x="294" y="426" type="curve" smooth="yes"/>
      <point x="259" y="426"/>
      <point x="231" y="415"/>
      <point x="212" y="394" type="curve" smooth="yes"/>
      <point x="192" y="372"/>
      <point x="182" y="341"/>
      <point x="182" y="301" type="curve" smooth="yes"/>
      <point x="182" y="0" type="line"/>
      <point x="55" y="0" type="line"/>
    </contour>
  </outline>
</glyph>
<glyph name="q" format="2">
  <advance width="584"/>
  <unicode hex="0071"/>
  <outline>
    <contour>
      <point x="403" y="57" type="line"/>
      <point x="352" y="-10"/>
      <point x="255" y="-9" type="qcurve" smooth="yes"/>
      <point x="161" y="-9"/>
      <point x="47" y="116"/>
      <point x="47" y="233" type="qcurve" smooth="yes"/>
      <point x="47" y="300" type="line" smooth="yes"/>
      <point x="47" y="415"/>
      <point x="162" y="542"/>
      <point x="255" y="542" type="qcurve" smooth="yes"/>
      <point x="346" y="542"/>
      <point x="406" y="475" type="qcurve"/>
      <point x="406" y="532" type="line"/>
      <point x="529" y="532" type="line"/>
      <point x="529" y="-160" type="line"/>
      <point x="403" y="-160" type="line"/>
    </contour>
    <contour>
      <point x="403" y="172"/>
      <point x="403" y="231" type="qcurve" smooth="yes"/>
      <point x="403" y="299" type="line" smooth="yes"/>
      <point x="403" y="360"/>
      <point x="342" y="429"/>
      <point x="287" y="429" type="qcurve" smooth="yes"/>
      <point x="233" y="429"/>
      <point x="174" y="362"/>
      <point x="174" y="294" type="qcurve" smooth="yes"/>
      <point x="174" y="239" type="line" smooth="yes"/>
      <point x="174" y="171"/>
      <point x="231" y="104"/>
      <point x="284" y="104" type="qcurve" smooth="yes"/>
      <point x="339" y="104"/>
    </contour>
  </outline>
</glyph>
<glyph name="t" format="2">
  <advance width="404"/>
  <unicode hex="0074"/>
  <outline>
    <contour>
      <point x="245" y="443" type="line"/>
      <point x="245" y="172" type="line" smooth="yes"/>
      <point x="245" y="137"/>
      <point x="274" y="108"/>
      <point x="309" y="108" type="qcurve" smooth="yes"/>
      <point x="354" y="108" type="line"/>
      <point x="354" y="0" type="line"/>
      <point x="286" y="0" type="line" smooth="yes"/>
      <point x="205" y="0"/>
      <point x="119" y="85"/>
      <point x="119" y="164" type="qcurve" smooth="yes"/>
      <point x="119" y="443" type="line"/>
      <point x="26" y="443" type="line"/>
      <point x="26" y="532" type="line"/>
      <point x="119" y="532" type="line"/>
      <point x="119" y="637" type="line"/>
      <point x="245" y="681" type="line"/>
      <point x="245" y="532" type="line"/>
      <point x="366" y="532" type="line"/>
      <point x="366" y="443" type="line"/>
    </contour>
  </outline>
</glyph>
<glyph name="braceright" format="2">
  <advance width="409"/>
  <unicode hex="007D"/>
  <outline>
    <contour>
      <point x="47" y="16" type="line"/>
      <point x="87" y="16" type="line" smooth="yes"/>
      <point x="110" y="16"/>
      <point x="127" y="20"/>
      <point x="137" y="28" type="curve" smooth="yes"/>
      <point x="147" y="36"/>
      <point x="152" y="49"/>
      <point x="152" y="67" type="curve" smooth="yes"/>
      <point x="152" y="208" type="line" smooth="yes"/>
      <point x="152" y="246"/>
      <point x="157" y="275"/>
      <point x="168" y="295" type="curve" smooth="yes"/>
      <point x="179" y="314"/>
      <point x="197" y="329"/>
      <point x="223" y="338" type="curve"/>
      <point x="197" y="347"/>
      <point x="179" y="362"/>
      <point x="168" y="382" type="curve" smooth="yes"/>
      <point x="157" y="401"/>
      <point x="152" y="430"/>
      <point x="152" y="468" type="curve" smooth="yes"/>
      <point x="152" y="605" type="line" smooth="yes"/>
      <point x="152" y="624"/>
      <point x="147" y="637"/>
      <point x="138" y="644" type="curve" smooth="yes"/>
      <point x="128" y="651"/>
      <point x="111" y="655"/>
      <point x="87" y="655" type="curve" smooth="yes"/>
      <point x="47" y="655" type="line"/>
      <point x="47" y="758" type="line"/>
      <point x="128" y="758" type="line" smooth="yes"/>
      <point x="223" y="758"/>
      <point x="270" y="715"/>
      <point x="270" y="628" type="curve" smooth="yes"/>
      <point x="270" y="474" type="line" smooth="yes"/>
      <point x="270" y="445"/>
      <point x="277" y="425"/>
      <point x="291" y="412" type="curve" smooth="yes"/>
      <point x="304" y="399"/>
      <point x="329" y="392"/>
      <point x="364" y="392" type="curve"/>
      <point x="364" y="284" type="line"/>
      <point x="329" y="284"/>
      <point x="305" y="278"/>
      <point x="291" y="265" type="curve" smooth="yes"/>
      <point x="277" y="252"/>
      <point x="270" y="231"/>
      <point x="270" y="202" type="curve" smooth="yes"/>
      <point x="270" y="45" type="line" smooth="yes"/>
      <point x="270" y="-42"/>
      <point x="223" y="-86"/>
      <point x="128" y="-86" type="curve" smooth="yes"/>
      <point x="47" y="-86" type="line"/>
    </contour>
  </outline>
</glyph>
<glyph name="sterling" format="2">
  <advance width="530"/>
  <unicode hex="00A3"/>
  <outline>
    <contour>
      <point x="199" y="116" type="curve"/>
      <point x="508" y="116" type="line"/>
      <point x="508" y="0" type="line"/>
      <point x="49" y="0" type="line"/>
      <point x="49" y="111" type="line"/>
      <point x="68" y="118"/>
      <point x="81" y="129"/>
      <point x="89" y="144" type="curve" smooth="yes"/>
      <point x="96" y="158"/>
      <point x="100" y="179"/>
      <point x="100" y="206" type="curve" smooth="yes"/>
      <point x="100" y="283" type="line"/>
      <point x="29" y="283" type="line"/>
      <point x="29" y="399" type="line"/>
      <point x="100" y="399" type="line"/>
      <point x="100" y="514" type="line" smooth="yes"/>
      <point x="100" y="578"/>
      <point x="118" y="628"/>
      <point x="155" y="664" type="curve" smooth="yes"/>
      <point x="191" y="699"/>
      <point x="242" y="717"/>
      <point x="308" y="717" type="curve" smooth="yes"/>
      <point x="370" y="717"/>
      <point x="419" y="702"/>
      <point x="455" y="671" type="curve" smooth="yes"/>
      <point x="490" y="640"/>
      <point x="508" y="597"/>
      <point x="508" y="542" type="curve"/>
      <point x="383" y="542" type="line"/>
      <point x="383" y="562"/>
      <point x="377" y="577"/>
      <point x="365" y="588" type="curve" smooth="yes"/>
      <point x="352" y="598"/>
      <point x="334" y="603"/>
      <point x="310" y="603" type="curve" smooth="yes"/>
      <point x="285" y="603"/>
      <point x="267" y="597"/>
      <point x="254" y="584" type="curve" smooth="yes"/>
      <point x="241" y="571"/>
      <point x="234" y="553"/>
      <point x="234" y="529" type="curve" smooth="yes"/>
      <point x="234" y="399" type="line"/>
      <point x="400" y="399" type="line"/>
      <point x="400" y="283" type="line"/>
      <point x="234" y="283" type="line"/>
      <point x="234" y="219" type="line" smooth="yes"/>
      <point x="234" y="196"/>
      <point x="231" y="176"/>
      <point x="226" y="159" type="curve" smooth="yes"/>
      <point x="220" y="142"/>
      <point x="211" y="128"/>
    </contour>
  </outline>
</glyph>
<glyph name="section" format="2">
  <advance width="573"/>
  <unicode hex="00A7"/>
  <outline>
    <contour>
      <point x="77" y="4" type="curve"/>
      <point x="193" y="4" type="line"/>
      <point x="193" y="-19"/>
      <point x="201" y="-37"/>
      <point x="216" y="-49" type="curve" smooth="yes"/>
      <point x="231" y="-62"/>
      <point x="254" y="-68"/>
      <point x="284" y="-68" type="curve" smooth="yes"/>
      <point x="311" y="-68"/>
      <point x="332" y="-62"/>
      <point x="347" y="-51" type="curve" smooth="yes"/>
      <point x="362" y="-40"/>
      <point x="369" y="-25"/>
      <point x="369" y="-5" type="curve" smooth="yes"/>
      <point x="369" y="20"/>
      <point x="358" y="39"/>
      <point x="337" y="52" type="curve" smooth="yes"/>
      <point x="316" y="65"/>
      <point x="280" y="77"/>
      <point x="230" y="88" type="curve" smooth="yes"/>
      <point x="117" y="117"/>
      <point x="60" y="181"/>
      <point x="60" y="280" type="curve" smooth="yes"/>
      <point x="60" y="317"/>
      <point x="69" y="350"/>
      <point x="87" y="377" type="curve" smooth="yes"/>
      <point x="104" y="404"/>
      <point x="129" y="424"/>
      <point x="161" y="439" type="curve"/>
      <point x="111" y="466"/>
      <point x="86" y="509"/>
      <point x="86" y="568" type="curve" smooth="yes"/>
      <point x="86" y="600"/>
      <point x="95" y="629"/>
      <point x="112" y="654" type="curve" smooth="yes"/>
      <point x="129" y="679"/>
      <point x="152" y="698"/>
      <point x="183" y="712" type="curve" smooth="yes"/>
      <point x="214" y="726"/>
      <point x="250" y="733"/>
      <point x="291" y="733" type="curve" smooth="yes"/>
      <point x="356" y="733"/>
      <point x="406" y="717"/>
      <point x="441" y="686" type="curve" smooth="yes"/>
      <point x="476" y="655"/>
      <point x="493" y="612"/>
      <point x="493" y="558" type="curve"/>
      <point x="378" y="558" type="line"/>
      <point x="378" y="581"/>
      <point x="371" y="598"/>
      <point x="356" y="611" type="curve" smooth="yes"/>
      <point x="341" y="623"/>
      <point x="319" y="629"/>
      <point x="290" y="629" type="curve" smooth="yes"/>
      <point x="264" y="629"/>
      <point x="244" y="624"/>
      <point x="230" y="613" type="curve" smooth="yes"/>
      <point x="215" y="602"/>
      <point x="208" y="587"/>
      <point x="208" y="567" type="curve" smooth="yes"/>
      <point x="208" y="543"/>
      <point x="218" y="525"/>
      <point x="238" y="514" type="curve" smooth="yes"/>
      <point x="258" y="502"/>
      <point x="293" y="490"/>
      <point x="344" y="477" type="curve" smooth="yes"/>
      <point x="457" y="448"/>
      <point x="513" y="385"/>
      <point x="513" y="288" type="curve" smooth="yes"/>
      <point x="513" y="249"/>
      <point x="504" y="216"/>
      <point x="486" y="189" type="curve" smooth="yes"/>
      <point x="467" y="161"/>
      <point x="443" y="140"/>
      <point x="412" y="127" type="curve"/>
      <point x="441" y="112"/>
      <point x="461" y="94"/>
      <point x="473" y="73" type="curve" smooth="yes"/>
      <point x="484" y="51"/>
      <point x="490" y="25"/>
      <point x="490" y="-6" type="curve" smooth="yes"/>
      <point x="490" y="-57"/>
      <point x="471" y="-97"/>
      <point x="434" y="-127" type="curve" smooth="yes"/>
      <point x="396" y="-157"/>
      <point x="346" y="-172"/>
      <point x="283" y="-172" type="curve" smooth="yes"/>
      <point x="217" y="-172"/>
      <point x="166" y="-157"/>
      <point x="131" y="-126" type="curve" smooth="yes"/>
      <point x="95" y="-95"/>
      <point x="77" y="-52"/>
    </contour>
    <contour>
      <point x="390" y="283" type="curve" smooth="yes"/>
      <point x="390" y="312"/>
      <point x="381" y="335"/>
      <point x="364" y="350" type="curve" smooth="yes"/>
      <point x="347" y="365"/>
      <point x="321" y="373"/>
      <point x="288" y="373" type="curve" smooth="yes"/>
      <point x="254" y="373"/>
      <point x="228" y="365"/>
      <point x="210" y="350" type="curve" smooth="yes"/>
      <point x="192" y="335"/>
      <point x="183" y="312"/>
      <point x="183" y="283" type="curve" smooth="yes"/>
      <point x="183" y="254"/>
      <point x="192" y="232"/>
      <point x="210" y="217" type="curve" smooth="yes"/>
      <point x="228" y="201"/>
      <point x="254" y="193"/>
      <point x="288" y="193" type="curve" smooth="yes"/>
      <point x="321" y="193"/>
      <point x="347" y="201"/>
      <point x="364" y="217" type="curve" smooth="yes"/>
      <point x="381" y="232"/>
      <point x="390" y="254"/>
    </contour>
  </outline>
</glyph>
<glyph name="ordfeminine" format="2">
  <advance width="386"/>
  <unicode hex="00AA"/>
  <outline>
    <contour>
      <point x="341" y="639" type="qcurve" smooth="yes"/>
      <point x="341" y="440" type="line"/>
      <point x="253" y="440" type="line"/>
      <point x="253" y="471" type="line"/>
      <point x="234" y="453"/>
      <point x="190" y="436"/>
      <point x="159" y="436" type="qcurve" smooth="yes"/>
      <point x="101" y="436"/>
      <point x="37" y="492"/>
      <point x="37" y="540" type="qcurve" smooth="yes"/>
      <point x="37" y="586"/>
      <point x="102" y="634"/>
      <point x="167" y="634" type="qcurve" smooth="yes"/>
      <point x="250" y="634" type="line"/>
      <point x="250" y="645" type="line" smooth="yes"/>
      <point x="250" y="673"/>
      <point x="219" y="698"/>
      <point x="186" y="698" type="qcurve" smooth="yes"/>
      <point x="157" y="698"/>
      <point x="131" y="679"/>
      <point x="131" y="665" type="qcurve" smooth="yes"/>
      <point x="131" y="663" type="line"/>
      <point x="47" y="663" type="line"/>
      <point x="47" y="665" type="line" smooth="yes"/>
      <point x="47" y="711"/>
      <point x="119" y="766"/>
      <point x="187" y="766" type="qcurve" smooth="yes"/>
      <point x="341" y="766"/>
    </contour>
    <contour>
      <point x="250" y="565" type="qcurve" smooth="yes"/>
      <point x="250" y="574" type="line"/>
      <point x="178" y="574" type="line" smooth="yes"/>
      <point x="125" y="574"/>
      <point x="125" y="543" type="qcurve" smooth="yes"/>
      <point x="125" y="527"/>
      <point x="153" y="508"/>
      <point x="179" y="508" type="qcurve" smooth="yes"/>
      <point x="250" y="508"/>
    </contour>
  </outline>
</glyph>
<glyph name="degree" format="2">
  <advance width="403"/>
  <unicode hex="00B0"/>
  <outline>
    <contour>
      <point x="56" y="567" type="curve" smooth="yes"/>
      <point x="56" y="595"/>
      <point x="63" y="621"/>
      <point x="76" y="644" type="curve" smooth="yes"/>
      <point x="89" y="667"/>
      <point x="107" y="685"/>
      <point x="130" y="698" type="curve" smooth="yes"/>
      <point x="153" y="711"/>
      <point x="179" y="718"/>
      <point x="207" y="718" type="curve" smooth="yes"/>
      <point x="235" y="718"/>
      <point x="260" y="711"/>
      <point x="283" y="698" type="curve" smooth="yes"/>
      <point x="306" y="685"/>
      <point x="324" y="667"/>
      <point x="337" y="644" type="curve" smooth="yes"/>
      <point x="350" y="621"/>
      <point x="357" y="595"/>
      <point x="357" y="567" type="curve" smooth="yes"/>
      <point x="357" y="539"/>
      <point x="350" y="514"/>
      <point x="337" y="491" type="curve" smooth="yes"/>
      <point x="324" y="468"/>
      <point x="306" y="450"/>
      <point x="283" y="437" type="curve" smooth="yes"/>
      <point x="260" y="424"/>
      <point x="235" y="417"/>
      <point x="207" y="417" type="curve" smooth="yes"/>
      <point x="164" y="417"/>
      <point x="128" y="431"/>
      <point x="99" y="460" type="curve" smooth="yes"/>
      <point x="70" y="489"/>
      <point x="56" y="524"/>
    </contour>
    <contour>
      <point x="278" y="567" type="curve" smooth="yes"/>
      <point x="278" y="588"/>
      <point x="271" y="606"/>
      <point x="258" y="620" type="curve" smooth="yes"/>
      <point x="245" y="634"/>
      <point x="228" y="641"/>
      <point x="207" y="641" type="curve" smooth="yes"/>
      <point x="186" y="641"/>
      <point x="169" y="634"/>
      <point x="156" y="621" type="curve" smooth="yes"/>
      <point x="143" y="607"/>
      <point x="136" y="589"/>
      <point x="136" y="567" type="curve" smooth="yes"/>
      <point x="136" y="545"/>
      <point x="143" y="527"/>
      <point x="156" y="514" type="curve" smooth="yes"/>
      <point x="169" y="501"/>
      <point x="186" y="494"/>
      <point x="207" y="494" type="curve" smooth="yes"/>
      <point x="228" y="494"/>
      <point x="245" y="501"/>
      <point x="258" y="515" type="curve" smooth="yes"/>
      <point x="271" y="529"/>
      <point x="278" y="546"/>
    </contour>
  </outline>
</glyph>
<glyph name="twosuperior" format="2">
  <advance width="399"/>
  <unicode hex="00B2"/>
  <outline>
    <contour>
      <point x="51" y="522" type="line"/>
      <point x="209" y="681" type="line" smooth="yes"/>
      <point x="222" y="692"/>
      <point x="231" y="703"/>
      <point x="237" y="712" type="curve" smooth="yes"/>
      <point x="242" y="721"/>
      <point x="245" y="731"/>
      <point x="245" y="740" type="curve" smooth="yes"/>
      <point x="245" y="746" type="line" smooth="yes"/>
      <point x="245" y="774"/>
      <point x="229" y="788"/>
      <point x="197" y="788" type="curve" smooth="yes"/>
      <point x="181" y="788"/>
      <point x="169" y="785"/>
      <point x="161" y="778" type="curve" smooth="yes"/>
      <point x="152" y="771"/>
      <point x="148" y="761"/>
      <point x="148" y="748" type="curve" smooth="yes"/>
      <point x="148" y="741" type="line"/>
      <point x="47" y="741" type="line"/>
      <point x="47" y="751" type="line" smooth="yes"/>
      <point x="47" y="790"/>
      <point x="60" y="820"/>
      <point x="87" y="843" type="curve" smooth="yes"/>
      <point x="114" y="866"/>
      <point x="151" y="877"/>
      <point x="200" y="877" type="curve" smooth="yes"/>
      <point x="247" y="877"/>
      <point x="285" y="865"/>
      <point x="312" y="842" type="curve" smooth="yes"/>
      <point x="339" y="819"/>
      <point x="352" y="789"/>
      <point x="352" y="752" type="curve" smooth="yes"/>
      <point x="352" y="743" type="line" smooth="yes"/>
      <point x="352" y="718"/>
      <point x="347" y="697"/>
      <point x="337" y="679" type="curve" smooth="yes"/>
      <point x="326" y="660"/>
      <point x="308" y="639"/>
      <point x="282" y="616" type="curve" smooth="yes"/>
      <point x="200" y="531" type="line"/>
      <point x="352" y="531" type="line"/>
      <point x="352" y="440" type="line"/>
      <point x="51" y="440" type="line"/>
    </contour>
  </outline>
</glyph>
<glyph name="threesuperior" format="2">
  <advance width="393"/>
  <unicode hex="00B3"/>
  <outline>
    <contour>
      <point x="44" y="556" type="curve" smooth="yes"/>
      <point x="44" y="564" type="line"/>
      <point x="139" y="564" type="line"/>
      <point x="139" y="558" type="line" smooth="yes"/>
      <point x="139" y="532"/>
      <point x="157" y="519"/>
      <point x="194" y="519" type="curve" smooth="yes"/>
      <point x="211" y="519"/>
      <point x="224" y="523"/>
      <point x="233" y="531" type="curve" smooth="yes"/>
      <point x="242" y="538"/>
      <point x="246" y="549"/>
      <point x="246" y="562" type="curve" smooth="yes"/>
      <point x="246" y="569" type="line" smooth="yes"/>
      <point x="246" y="600"/>
      <point x="225" y="616"/>
      <point x="184" y="616" type="curve" smooth="yes"/>
      <point x="160" y="616" type="line"/>
      <point x="160" y="703" type="line"/>
      <point x="183" y="703" type="line" smooth="yes"/>
      <point x="220" y="703"/>
      <point x="238" y="716"/>
      <point x="239" y="743" type="curve" smooth="yes"/>
      <point x="239" y="751" type="line" smooth="yes"/>
      <point x="239" y="778"/>
      <point x="223" y="791"/>
      <point x="190" y="791" type="curve" smooth="yes"/>
      <point x="157" y="791"/>
      <point x="140" y="778"/>
      <point x="140" y="753" type="curve" smooth="yes"/>
      <point x="140" y="745" type="line"/>
      <point x="46" y="745" type="line"/>
      <point x="46" y="752" type="line" smooth="yes"/>
      <point x="46" y="793"/>
      <point x="59" y="824"/>
      <point x="85" y="845" type="curve" smooth="yes"/>
      <point x="110" y="866"/>
      <point x="147" y="877"/>
      <point x="195" y="877" type="curve" smooth="yes"/>
      <point x="240" y="877"/>
      <point x="276" y="866"/>
      <point x="302" y="845" type="curve" smooth="yes"/>
      <point x="327" y="824"/>
      <point x="340" y="795"/>
      <point x="340" y="759" type="curve" smooth="yes"/>
      <point x="340" y="752" type="line" smooth="yes"/>
      <point x="340" y="734"/>
      <point x="335" y="718"/>
      <point x="325" y="703" type="curve" smooth="yes"/>
      <point x="315" y="688"/>
      <point x="301" y="677"/>
      <point x="282" y="669" type="curve"/>
      <point x="303" y="664"/>
      <point x="320" y="652"/>
      <point x="331" y="635" type="curve" smooth="yes"/>
      <point x="342" y="617"/>
      <point x="348" y="596"/>
      <point x="348" y="571" type="curve" smooth="yes"/>
      <point x="348" y="563" type="line" smooth="yes"/>
      <point x="348" y="524"/>
      <point x="334" y="492"/>
      <point x="306" y="469" type="curve" smooth="yes"/>
      <point x="278" y="445"/>
      <point x="241" y="433"/>
      <point x="196" y="433" type="curve" smooth="yes"/>
      <point x="146" y="433"/>
      <point x="108" y="444"/>
      <point x="83" y="465" type="curve" smooth="yes"/>
      <point x="57" y="486"/>
      <point x="44" y="516"/>
    </contour>
  </outline>
</glyph>
<glyph name="Oslash" format="2">
  <advance width="689"/>
  <unicode hex="00D8"/>
  <outline>
    <contour>
      <point x="644" y="410" type="curve" smooth="yes"/>
      <point x="644" y="299" type="line" smooth="yes"/>
      <point x="644" y="196"/>
      <point x="618" y="119"/>
      <point x="565" y="67" type="curve" smooth="yes"/>
      <point x="512" y="15"/>
      <point x="439" y="-11"/>
      <point x="348" y="-11" type="curve" smooth="yes"/>
      <point x="279" y="-11"/>
      <point x="222" y="4"/>
      <point x="176" y="33" type="curve"/>
      <point x="140" y="-20" type="line"/>
      <point x="56" y="-20" type="line"/>
      <point x="123" y="80" type="line"/>
      <point x="79" y="133"/>
      <point x="57" y="206"/>
      <point x="57" y="299" type="curve" smooth="yes"/>
      <point x="57" y="410" type="line" smooth="yes"/>
      <point x="57" y="513"/>
      <point x="83" y="591"/>
      <point x="136" y="643" type="curve" smooth="yes"/>
      <point x="188" y="694"/>
      <point x="260" y="720"/>
      <point x="352" y="720" type="curve" smooth="yes"/>
      <point x="418" y="720"/>
      <point x="474" y="706"/>
      <point x="520" y="679" type="curve"/>
      <point x="556" y="732" type="line"/>
      <point x="638" y="732" type="line"/>
      <point x="573" y="635" type="line"/>
      <point x="620" y="582"/>
      <point x="644" y="507"/>
    </contour>
    <contour>
      <point x="510" y="402" type="line" smooth="yes"/>
      <point x="510" y="445"/>
      <point x="504" y="482"/>
      <point x="493" y="513" type="curve"/>
      <point x="248" y="141" type="line"/>
      <point x="273" y="120"/>
      <point x="308" y="109"/>
      <point x="352" y="110" type="curve" smooth="yes"/>
      <point x="457" y="110"/>
      <point x="510" y="174"/>
      <point x="510" y="301" type="curve" smooth="yes"/>
    </contour>
    <contour>
      <point x="206" y="205" type="curve"/>
      <point x="451" y="572" type="line"/>
      <point x="426" y="592"/>
      <point x="393" y="602"/>
      <point x="352" y="602" type="curve" smooth="yes"/>
      <point x="298" y="602"/>
      <point x="258" y="586"/>
      <point x="232" y="553" type="curve" smooth="yes"/>
      <point x="206" y="520"/>
      <point x="193" y="470"/>
      <point x="193" y="402" type="curve" smooth="yes"/>
      <point x="193" y="301" type="line" smooth="yes"/>
      <point x="193" y="263"/>
      <point x="197" y="231"/>
    </contour>
  </outline>
</glyph>
<glyph name="ae" format="2">
  <advance width="921"/>
  <unicode hex="00E6"/>
  <outline>
    <contour>
      <point x="876" y="229" type="line"/>
      <point x="511" y="229" type="line"/>
      <point x="511" y="144"/>
      <point x="554" y="101"/>
      <point x="641" y="101" type="curve" smooth="yes"/>
      <point x="671" y="101"/>
      <point x="695" y="107"/>
      <point x="714" y="118" type="curve" smooth="yes"/>
      <point x="732" y="129"/>
      <point x="743" y="144"/>
      <point x="746" y="164" type="curve"/>
      <point x="748" y="167" type="line"/>
      <point x="871" y="167" type="line"/>
      <point x="870" y="161" type="line" smooth="yes"/>
      <point x="868" y="129"/>
      <point x="858" y="100"/>
      <point x="839" y="74" type="curve" smooth="yes"/>
      <point x="820" y="48"/>
      <point x="794" y="28"/>
      <point x="761" y="13" type="curve" smooth="yes"/>
      <point x="727" y="-2"/>
      <point x="687" y="-9"/>
      <point x="641" y="-9" type="curve" smooth="yes"/>
      <point x="559" y="-9"/>
      <point x="495" y="15"/>
      <point x="449" y="63" type="curve"/>
      <point x="404" y="14"/>
      <point x="338" y="-10"/>
      <point x="252" y="-9" type="curve" smooth="yes"/>
      <point x="184" y="-9"/>
      <point x="131" y="6"/>
      <point x="94" y="37" type="curve" smooth="yes"/>
      <point x="57" y="67"/>
      <point x="38" y="108"/>
      <point x="38" y="161" type="curve" smooth="yes"/>
      <point x="38" y="212"/>
      <point x="56" y="251"/>
      <point x="91" y="277" type="curve" smooth="yes"/>
      <point x="126" y="303"/>
      <point x="176" y="316"/>
      <point x="243" y="316" type="curve" smooth="yes"/>
      <point x="385" y="316" type="line"/>
      <point x="385" y="346" type="line" smooth="yes"/>
      <point x="385" y="409"/>
      <point x="347" y="441"/>
      <point x="272" y="441" type="curve" smooth="yes"/>
      <point x="238" y="441"/>
      <point x="213" y="435"/>
      <point x="198" y="423" type="curve" smooth="yes"/>
      <point x="183" y="410"/>
      <point x="175" y="395"/>
      <point x="175" y="376" type="curve" smooth="yes"/>
      <point x="175" y="373" type="line"/>
      <point x="54" y="373" type="line"/>
      <point x="54" y="376" type="line" smooth="yes"/>
      <point x="54" y="427"/>
      <point x="74" y="467"/>
      <point x="114" y="496" type="curve" smooth="yes"/>
      <point x="154" y="525"/>
      <point x="208" y="539"/>
      <point x="275" y="539" type="curve" smooth="yes"/>
      <point x="354" y="539"/>
      <point x="415" y="519"/>
      <point x="456" y="480" type="curve"/>
      <point x="501" y="521"/>
      <point x="559" y="541"/>
      <point x="631" y="542" type="curve" smooth="yes"/>
      <point x="707" y="542"/>
      <point x="767" y="520"/>
      <point x="811" y="477" type="curve" smooth="yes"/>
      <point x="854" y="434"/>
      <point x="876" y="372"/>
      <point x="876" y="291" type="curve" smooth="yes"/>
    </contour>
    <contour>
      <point x="385" y="198" type="curve" smooth="yes"/>
      <point x="385" y="229" type="line"/>
      <point x="266" y="229" type="line" smooth="yes"/>
      <point x="230" y="229"/>
      <point x="204" y="224"/>
      <point x="187" y="214" type="curve" smooth="yes"/>
      <point x="170" y="204"/>
      <point x="161" y="188"/>
      <point x="161" y="165" type="curve" smooth="yes"/>
      <point x="161" y="118"/>
      <point x="194" y="95"/>
      <point x="261" y="95" type="curve" smooth="yes"/>
      <point x="303" y="95"/>
      <point x="334" y="104"/>
      <point x="355" y="121" type="curve" smooth="yes"/>
      <point x="375" y="138"/>
      <point x="385" y="164"/>
    </contour>
    <contour>
      <point x="750" y="325" type="line" smooth="yes"/>
      <point x="750" y="360"/>
      <point x="739" y="387"/>
      <point x="718" y="406" type="curve" smooth="yes"/>
      <point x="696" y="424"/>
      <point x="667" y="433"/>
      <point x="631" y="433" type="curve" smooth="yes"/>
      <point x="555" y="433"/>
      <point x="515" y="394"/>
      <point x="511" y="316" type="curve"/>
      <point x="750" y="316" type="line"/>
    </contour>
  </outline>
</glyph>
<glyph name="ccedilla" format="2">
  <advance width="572"/>
  <unicode hex="00E7"/>
  <outline>
    <contour>
      <point x="402" y="339" type="line"/>
      <point x="402" y="343" type="line" smooth="yes"/>
      <point x="402" y="370"/>
      <point x="392" y="391"/>
      <point x="373" y="406" type="curve" smooth="yes"/>
      <point x="354" y="421"/>
      <point x="327" y="429"/>
      <point x="293" y="429" type="curve" smooth="yes"/>
      <point x="254" y="429"/>
      <point x="224" y="419"/>
      <point x="204" y="398" type="curve" smooth="yes"/>
      <point x="183" y="377"/>
      <point x="173" y="343"/>
      <point x="173" y="297" type="curve" smooth="yes"/>
      <point x="173" y="237" type="line" smooth="yes"/>
      <point x="173" y="190"/>
      <point x="183" y="157"/>
      <point x="204" y="136" type="curve" smooth="yes"/>
      <point x="224" y="115"/>
      <point x="255" y="104"/>
      <point x="296" y="104" type="curve" smooth="yes"/>
      <point x="329" y="104"/>
      <point x="354" y="111"/>
      <point x="373" y="126" type="curve" smooth="yes"/>
      <point x="392" y="141"/>
      <point x="401" y="161"/>
      <point x="401" y="186" type="curve" smooth="yes"/>
      <point x="401" y="190" type="line"/>
      <point x="525" y="190" type="line"/>
      <point x="525" y="186" type="line" smooth="yes"/>
      <point x="525" y="136"/>
      <point x="511" y="95"/>
      <point x="483" y="62" type="curve" smooth="yes"/>
      <point x="454" y="29"/>
      <point x="415" y="8"/>
      <point x="364" y="-2" type="curve"/>
      <point x="299" y="-160" type="line"/>
      <point x="177" y="-160" type="line"/>
      <point x="255" y="-7" type="line"/>
      <point x="190" y="-2"/>
      <point x="139" y="22"/>
      <point x="102" y="63" type="curve" smooth="yes"/>
      <point x="65" y="104"/>
      <point x="47" y="162"/>
      <point x="47" y="236" type="curve" smooth="yes"/>
      <point x="47" y="299" type="line" smooth="yes"/>
      <point x="47" y="378"/>
      <point x="69" y="439"/>
      <point x="112" y="480" type="curve" smooth="yes"/>
      <point x="155" y="521"/>
      <point x="214" y="542"/>
      <point x="290" y="542" type="curve" smooth="yes"/>
      <point x="365" y="542"/>
      <point x="423" y="525"/>
      <point x="464" y="490" type="curve" smooth="yes"/>
      <point x="505" y="455"/>
      <point x="526" y="406"/>
      <point x="526" y="345" type="curve" smooth="yes"/>
      <point x="526" y="339" type="line"/>
    </contour>
  </outline>
</glyph>
<glyph name="Aogonek" format="2">
  <advance width="697"/>
  <unicode hex="0104"/>
  <outline>
    <component base="A"/>
    <contour>
      <point x="553" y="0" type="line"/>
      <point x="692" y="0" type="line"/>
      <point x="563" y="-49" type="line"/>
      <point x="598" y="-75"/>
      <point x="633" y="-72"/>
      <point x="692" y="-73" type="curve"/>
      <point x="692" y="-162" type="line"/>
      <point x="604" y="-161"/>
      <point x="532" y="-144"/>
      <point x="480" y="-109" type="curve" smooth="yes"/>
      <point x="452" y="-92"/>
      <point x="434" y="-69"/>
      <point x="420" y="-41" type="curve"/>
    </contour>
  </outline>
</glyph>
<glyph name="hbar" format="2">
  <advance width="585"/>
  <unicode hex="0127"/>
  <outline>
    <component base="h"/>
    <contour>
      <point x="0" y="653" type="line"/>
      <point x="317" y="653" type="line"/>
      <point x="317" y="585" type="line"/>
      <point x="0" y="585" type="line"/>
    </contour>
  </outline>
</glyph>
<glyph name="IJ" format="2">
  <advance width="784"/>
  <unicode hex="0132"/>
  <outline>
    <contour>
      <point x="498" y="707" type="line"/>
      <point x="632" y="707" type="line"/>
      <point x="632" y="254" type="line" smooth="yes"/>
      <point x="632" y="201"/>
      <point x="620" y="155"/>
      <point x="597" y="116" type="curve" smooth="yes"/>
      <point x="573" y="77"/>
      <point x="539" y="47"/>
      <point x="496" y="26" type="curve" smooth="yes"/>
      <point x="453" y="5"/>
      <point x="402" y="-6"/>
      <point x="345" y="-6" type="curve" smooth="yes"/>
      <point x="288" y="-6"/>
      <point x="239" y="5"/>
      <point x="196" y="26" type="curve" smooth="yes"/>
      <point x="153" y="47"/>
      <point x="119" y="77"/>
      <point x="96" y="116" type="curve" smooth="yes"/>
      <point x="83" y="137"/>
      <point x="74" y="160"/>
      <point x="68" y="185" type="curve"/>
      <point x="209" y="185" type="line"/>
      <point x="215" y="171"/>
      <point x="223" y="159"/>
      <point x="234" y="149" type="curve" smooth="yes"/>
      <point x="259" y="124"/>
      <point x="296" y="111"/>
      <point x="345" y="111" type="curve" smooth="yes"/>
      <point x="394" y="111"/>
      <point x="431" y="124"/>
      <point x="458" y="149" type="curve" smooth="yes"/>
      <point x="485" y="174"/>
      <point x="498" y="210"/>
      <point x="498" y="258" type="curve" smooth="yes"/>
    </contour>
    <contour>
      <point x="60" y="707" type="line"/>
      <point x="195" y="707" type="line"/>
      <point x="195" y="313" type="line"/>
      <point x="60" y="313" type="line"/>
    </contour>
  </outline>
</glyph>
<glyph name="Eng" format="2">
  <advance width="715"/>
  <unicode hex="014A"/>
  <outline>
    <contour>
      <point x="60" y="707" type="line"/>
      <point x="195" y="707" type="line"/>
      <point x="521" y="238" type="line"/>
      <point x="521" y="707" type="line"/>
      <point x="655" y="707" type="line"/>
      <point x="655" y="-1" type="line" smooth="yes"/>
      <point x="655" y="-59"/>
      <point x="640" y="-102"/>
      <point x="611" y="-130" type="curve" smooth="yes"/>
      <point x="582" y="-159"/>
      <point x="538" y="-173"/>
      <point x="478" y="-173" type="curve" smooth="yes"/>
      <point x="407" y="-173" type="line"/>
      <point x="407" y="-63" type="line"/>
      <point x="455" y="-63" type="line" smooth="yes"/>
      <point x="482" y="-63"/>
      <point x="501" y="-58"/>
      <point x="512" y="-47" type="curve" smooth="yes"/>
      <point x="522" y="-38"/>
      <point x="521" y="-22"/>
      <point x="521" y="0" type="curve"/>
      <point x="521" y="0" type="line"/>
      <point x="195" y="468" type="line"/>
      <point x="195" y="0" type="line"/>
      <point x="60" y="0" type="line"/>
    </contour>
  </outline>
</glyph>
<glyph name="OE" format="2">
  <advance width="1038"/>
  <unicode hex="0152"/>
  <outline>
    <contour>
      <point x="643" y="590" type="line"/>
      <point x="643" y="415" type="line"/>
      <point x="950" y="415" type="line"/>
      <point x="950" y="298" type="line"/>
      <point x="643" y="298" type="line"/>
      <point x="643" y="117" type="line"/>
      <point x="1002" y="117" type="line"/>
      <point x="1002" y="0" type="line"/>
      <point x="514" y="0" type="line"/>
      <point x="514" y="36" type="line"/>
      <point x="465" y="5"/>
      <point x="408" y="-11"/>
      <point x="342" y="-11" type="curve" smooth="yes"/>
      <point x="254" y="-11"/>
      <point x="184" y="15"/>
      <point x="133" y="67" type="curve" smooth="yes"/>
      <point x="82" y="119"/>
      <point x="56" y="196"/>
      <point x="56" y="299" type="curve" smooth="yes"/>
      <point x="56" y="410" type="line" smooth="yes"/>
      <point x="56" y="513"/>
      <point x="82" y="590"/>
      <point x="134" y="642" type="curve" smooth="yes"/>
      <point x="186" y="694"/>
      <point x="256" y="720"/>
      <point x="345" y="720" type="curve" smooth="yes"/>
      <point x="410" y="720"/>
      <point x="466" y="705"/>
      <point x="514" y="674" type="curve"/>
      <point x="514" y="707" type="line"/>
      <point x="1002" y="707" type="line"/>
      <point x="1002" y="590" type="line"/>
    </contour>
    <contour>
      <point x="509" y="402" type="line" smooth="yes"/>
      <point x="509" y="535"/>
      <point x="456" y="602"/>
      <point x="351" y="602" type="curve" smooth="yes"/>
      <point x="297" y="602"/>
      <point x="257" y="586"/>
      <point x="231" y="553" type="curve" smooth="yes"/>
      <point x="204" y="520"/>
      <point x="191" y="470"/>
      <point x="191" y="402" type="curve" smooth="yes"/>
      <point x="191" y="301" type="line" smooth="yes"/>
      <point x="191" y="236"/>
      <point x="204" y="188"/>
      <point x="231" y="157" type="curve" smooth="yes"/>
      <point x="257" y="126"/>
      <point x="297" y="110"/>
      <point x="351" y="110" type="curve" smooth="yes"/>
      <point x="456" y="110"/>
      <point x="509" y="174"/>
      <point x="509" y="301" type="curve" smooth="yes"/>
    </contour>
  </outline>
</glyph>
<glyph name="Uogonek" format="2">
  <advance width="692"/>
  <unicode hex="0172"/>
  <outline>
    <component base="U" xOffset="0" yOffset="0"/>
    <contour>
      <point x="351" y="13" type="line"/>
      <point x="466" y="13" type="line"/>
      <point x="337" y="-49" type="line"/>
      <point x="372" y="-75"/>
      <point x="407" y="-72"/>
      <point x="466" y="-73" type="curve"/>
      <point x="466" y="-162" type="line"/>
      <point x="378" y="-161"/>
      <point x="306" y="-144"/>
      <point x="254" y="-109" type="curve" smooth="yes"/>
      <point x="226" y="-92"/>
      <point x="208" y="-69"/>
      <point x="194" y="-41" type="curve"/>
    </contour>
  </outline>
</glyph>
<glyph name="Oogonek" format="2">
  <advance width="689"/>
  <unicode hex="01EA"/>
  <outline>
    <component base="O"/>
    <contour>
      <point x="351" y="13" type="line"/>
      <point x="466" y="13" type="line"/>
      <point x="337" y="-49" type="line"/>
      <point x="372" y="-75"/>
      <point x="407" y="-72"/>
      <point x="466" y="-73" type="curve"/>
      <point x="466" y="-162" type="line"/>
      <point x="378" y="-161"/>
      <point x="306" y="-144"/>
      <point x="254" y="-109" type="curve" smooth="yes"/>
      <point x="226" y="-92"/>
      <point x="208" y="-69"/>
      <point x="194" y="-41" type="curve"/>
    </contour>
  </outline>
</glyph>
<glyph name="oogonek" format="2">
  <advance width="576"/>
  <unicode hex="01EB"/>
  <outline>
    <contour>
      <point x="47" y="236" type="line" smooth="yes"/>
      <point x="47" y="156"/>
      <point x="69" y="95"/>
      <point x="112" y="54" type="curve" smooth="yes"/>
      <point x="158" y="9"/>
      <point x="226" y="-12"/>
      <point x="304" y="-9" type="curve"/>
      <point x="184" y="-55" type="line"/>
      <point x="198" y="-93"/>
      <point x="216" y="-124"/>
      <point x="244" y="-146" type="curve" smooth="yes"/>
      <point x="296" y="-193"/>
      <point x="368" y="-216"/>
      <point x="456" y="-218" type="curve"/>
      <point x="456" y="-98" type="line"/>
      <point x="397" y="-97"/>
      <point x="362" y="-101"/>
      <point x="327" y="-66" type="curve"/>
      <point x="435" y="29" type="line"/>
      <point x="466" y="54" type="line"/>
      <point x="509" y="95"/>
      <point x="530" y="156"/>
      <point x="530" y="236" type="curve" smooth="yes"/>
      <point x="530" y="299" type="line" smooth="yes"/>
      <point x="530" y="378"/>
      <point x="509" y="438"/>
      <point x="467" y="480" type="curve" smooth="yes"/>
      <point x="424" y="521"/>
      <point x="365" y="542"/>
      <point x="290" y="542" type="curve" smooth="yes"/>
      <point x="214" y="542"/>
      <point x="155" y="521"/>
      <point x="112" y="480" type="curve" smooth="yes"/>
      <point x="69" y="439"/>
      <point x="47" y="378"/>
      <point x="47" y="299" type="curve" smooth="yes"/>
    </contour>
    <contour>
      <point x="404" y="237" type="line" smooth="yes"/>
      <point x="404" y="149"/>
      <point x="366" y="105"/>
      <point x="290" y="104" type="curve" smooth="yes"/>
      <point x="212" y="105"/>
      <point x="173" y="149"/>
      <point x="173" y="237" type="curve" smooth="yes"/>
      <point x="173" y="297" type="line" smooth="yes"/>
      <point x="173" y="385"/>
      <point x="212" y="429"/>
      <point x="290" y="429" type="curve" smooth="yes"/>
      <point x="327" y="429"/>
      <point x="355" y="418"/>
      <point x="375" y="397" type="curve" smooth="yes"/>
      <point x="394" y="376"/>
      <point x="404" y="342"/>
      <point x="404" y="297" type="curve" smooth="yes"/>
    </contour>
  </outline>
</glyph>
<glyph name="breve" format="2">
  <advance width="512"/>
  <unicode hex="028D"/>
  <outline>
    <contour>
      <point x="255" y="573" type="curve" smooth="yes"/>
      <point x="162" y="573"/>
      <point x="113" y="621"/>
      <point x="113" y="707" type="curve" smooth="yes"/>
      <point x="113" y="725" type="line"/>
      <point x="187" y="725" type="line"/>
      <point x="187" y="707" type="line" smooth="yes"/>
      <point x="187" y="657"/>
      <point x="209" y="633"/>
      <point x="255" y="633" type="curve" smooth="yes"/>
      <point x="301" y="633"/>
      <point x="323" y="657"/>
      <point x="323" y="707" type="curve" smooth="yes"/>
      <point x="323" y="725" type="line"/>
      <point x="397" y="725" type="line"/>
      <point x="397" y="707" type="line" smooth="yes"/>
      <point x="397" y="621"/>
      <point x="348" y="573"/>
    </contour>
  </outline>
</glyph>
<glyph name="ring" format="2">
  <advance width="512"/>
  <unicode hex="02DA"/>
  <outline>
    <contour>
      <point x="148" y="696" type="curve" smooth="yes"/>
      <point x="148" y="727"/>
      <point x="158" y="752"/>
      <point x="179" y="773" type="curve" smooth="yes"/>
      <point x="199" y="793"/>
      <point x="224" y="803"/>
      <point x="254" y="803" type="curve" smooth="yes"/>
      <point x="284" y="803"/>
      <point x="309" y="793"/>
      <point x="329" y="773" type="curve" smooth="yes"/>
      <point x="349" y="752"/>
      <point x="359" y="727"/>
      <point x="359" y="696" type="curve" smooth="yes"/>
      <point x="359" y="666"/>
      <point x="349" y="641"/>
      <point x="329" y="621" type="curve" smooth="yes"/>
      <point x="309" y="601"/>
      <point x="284" y="591"/>
      <point x="254" y="591" type="curve" smooth="yes"/>
      <point x="224" y="591"/>
      <point x="199" y="601"/>
      <point x="179" y="621" type="curve" smooth="yes"/>
      <point x="158" y="641"/>
      <point x="148" y="666"/>
    </contour>
    <contour>
      <point x="302" y="696" type="curve" smooth="yes"/>
      <point x="302" y="711"/>
      <point x="297" y="723"/>
      <point x="288" y="732" type="curve" smooth="yes"/>
      <point x="279" y="741"/>
      <point x="267" y="746"/>
      <point x="254" y="746" type="curve" smooth="yes"/>
      <point x="241" y="746"/>
      <point x="230" y="741"/>
      <point x="221" y="732" type="curve" smooth="yes"/>
      <point x="212" y="723"/>
      <point x="207" y="711"/>
      <point x="207" y="696" type="curve" smooth="yes"/>
      <point x="207" y="683"/>
      <point x="212" y="671"/>
      <point x="221" y="662" type="curve" smooth="yes"/>
      <point x="230" y="652"/>
      <point x="241" y="647"/>
      <point x="254" y="647" type="curve" smooth="yes"/>
      <point x="267" y="647"/>
      <point x="279" y="652"/>
      <point x="288" y="662" type="curve" smooth="yes"/>
      <point x="297" y="671"/>
      <point x="302" y="683"/>
    </contour>
  </outline>
</glyph>
<glyph name="ogonek" format="2">
  <advance width="512"/>
  <unicode hex="02DB"/>
  <outline>
    <contour>
      <point x="341" y="17" type="line"/>
      <point x="456" y="17" type="line"/>
      <point x="456" y="-1" type="line"/>
      <point x="327" y="-66" type="line"/>
      <point x="362" y="-101"/>
      <point x="397" y="-97"/>
      <point x="456" y="-98" type="curve"/>
      <point x="456" y="-218" type="line"/>
      <point x="368" y="-216"/>
      <point x="296" y="-194"/>
      <point x="244" y="-147" type="curve" smooth="yes"/>
      <point x="216" y="-124"/>
      <point x="198" y="-93"/>
      <point x="184" y="-56" type="curve"/>
    </contour>
  </outline>
</glyph>
<glyph name="tilde" format="2">
  <advance width="512"/>
  <unicode hex="02DC"/>
  <outline>
    <contour>
      <point x="92" y="689" type="line"/>
      <point x="109" y="704"/>
      <point x="124" y="715"/>
      <point x="139" y="722" type="curve" smooth="yes"/>
      <point x="153" y="729"/>
      <point x="169" y="732"/>
      <point x="186" y="732" type="curve" smooth="yes"/>
      <point x="202" y="732"/>
      <point x="216" y="730"/>
      <point x="228" y="727" type="curve" smooth="yes"/>
      <point x="239" y="724"/>
      <point x="252" y="719"/>
      <point x="267" y="712" type="curve" smooth="yes"/>
      <point x="282" y="706"/>
      <point x="293" y="701"/>
      <point x="302" y="698" type="curve" smooth="yes"/>
      <point x="311" y="695"/>
      <point x="321" y="693"/>
      <point x="333" y="693" type="curve" smooth="yes"/>
      <point x="348" y="693"/>
      <point x="361" y="696"/>
      <point x="372" y="702" type="curve" smooth="yes"/>
      <point x="383" y="708"/>
      <point x="399" y="719"/>
      <point x="419" y="734" type="curve"/>
      <point x="419" y="640" type="line"/>
      <point x="402" y="624"/>
      <point x="387" y="613"/>
      <point x="373" y="607" type="curve" smooth="yes"/>
      <point x="359" y="600"/>
      <point x="343" y="597"/>
      <point x="326" y="597" type="curve" smooth="yes"/>
      <point x="311" y="597"/>
      <point x="297" y="599"/>
      <point x="286" y="602" type="curve" smooth="yes"/>
      <point x="274" y="605"/>
      <point x="261" y="610"/>
      <point x="246" y="617" type="curve" smooth="yes"/>
      <point x="231" y="623"/>
      <point x="220" y="628"/>
      <point x="211" y="631" type="curve" smooth="yes"/>
      <point x="202" y="634"/>
      <point x="192" y="636"/>
      <point x="180" y="636" type="curve" smooth="yes"/>
      <point x="165" y="636"/>
      <point x="152" y="633"/>
      <point x="141" y="628" type="curve" smooth="yes"/>
      <point x="130" y="623"/>
      <point x="113" y="612"/>
      <point x="92" y="596" type="curve"/>
    </contour>
  </outline>
</glyph>
<glyph name="caroncmb.alt" format="2">
  <unicode hex="030C"/>
  <outline>
    <contour>
      <point x="-50" y="707" type="line"/>
      <point x="50" y="707" type="line"/>
      <point x="50" y="562" type="line"/>
      <point x="-50" y="481" type="line"/>
    </contour>
  </outline>
</glyph>
<glyph name="caroncmb" format="2">
  <unicode hex="030C"/>
  <outline>
    <contour>
      <point x="-185" y="738" type="line"/>
      <point x="-79" y="738" type="line"/>
      <point x="0" y="657" type="line"/>
      <point x="78" y="738" type="line"/>
      <point x="184" y="738" type="line"/>
      <point x="46" y="584" type="line"/>
      <point x="-47" y="584" type="line"/>
    </contour>
  </outline>
</glyph>
<glyph name="dotbelowcomb" format="2">
  <unicode hex="0323"/>
  <outline>
    <contour>
      <point x="-62" y="-86" type="line"/>
      <point x="70" y="-86" type="line"/>
      <point x="70" y="-188" type="line"/>
      <point x="-62" y="-188" type="line"/>
    </contour>
  </outline>
</glyph>
<glyph name="alpha" format="2">
  <advance width="697"/>
  <unicode hex="03B1"/>
  <outline>
    <contour>
      <point x="290" y="542" type="curve" smooth="yes"/>
      <point x="365" y="542"/>
      <point x="424" y="521"/>
      <point x="466" y="480" type="curve" smooth="yes"/>
      <point x="475" y="471"/>
      <point x="483" y="462"/>
      <point x="490" y="452" type="curve"/>
      <point x="497" y="459" type="line" smooth="yes"/>
      <point x="534" y="495"/>
      <point x="586" y="513"/>
      <point x="652" y="514" type="curve"/>
      <point x="652" y="403" type="line"/>
      <point x="592" y="401"/>
      <point x="562" y="365"/>
      <point x="562" y="294" type="curve" smooth="yes"/>
      <point x="562" y="240" type="line" smooth="yes"/>
      <point x="562" y="170"/>
      <point x="592" y="133"/>
      <point x="652" y="130" type="curve"/>
      <point x="652" y="19" type="line"/>
      <point x="586" y="20"/>
      <point x="534" y="38"/>
      <point x="497" y="75" type="curve" smooth="yes"/>
      <point x="494" y="77"/>
      <point x="492" y="79"/>
      <point x="490" y="82" type="curve"/>
      <point x="483" y="72"/>
      <point x="475" y="63"/>
      <point x="466" y="54" type="curve" smooth="yes"/>
      <point x="423" y="12"/>
      <point x="365" y="-9"/>
      <point x="290" y="-9" type="curve" smooth="yes"/>
      <point x="214" y="-9"/>
      <point x="155" y="12"/>
      <point x="112" y="54" type="curve" smooth="yes"/>
      <point x="69" y="95"/>
      <point x="47" y="156"/>
      <point x="47" y="236" type="curve" smooth="yes"/>
      <point x="47" y="299" type="line" smooth="yes"/>
      <point x="47" y="378"/>
      <point x="69" y="439"/>
      <point x="112" y="480" type="curve" smooth="yes"/>
      <point x="155" y="521"/>
      <point x="214" y="542"/>
    </contour>
    <contour>
      <point x="290" y="429" type="curve" smooth="yes"/>
      <point x="212" y="429"/>
      <point x="173" y="385"/>
      <point x="173" y="297" type="curve" smooth="yes"/>
      <point x="173" y="237" type="line" smooth="yes"/>
      <point x="173" y="150"/>
      <point x="212" y="105"/>
      <point x="290" y="104" type="curve" smooth="yes"/>
      <point x="366" y="105"/>
      <point x="404" y="150"/>
      <point x="404" y="237" type="curve" smooth="yes"/>
      <point x="404" y="297" type="line" smooth="yes"/>
      <point x="404" y="385"/>
      <point x="366" y="429"/>
    </contour>
  </outline>
</glyph>
<glyph name="Eukrcyr" format="2">
  <advance width="689"/>
  <unicode hex="0404"/>
  <guideline x="360" y="0" angle="90" name="h1"/>
  <anchor x="360" y="776" name="top"/>
  <outline>
    <contour>
      <point x="191" y="416" type="curve"/>
      <point x="445" y="416" type="line"/>
      <point x="445" y="299" type="line"/>
      <point x="191" y="299" type="line"/>
      <point x="192" y="172"/>
      <point x="247" y="110"/>
      <point x="359" y="110" type="curve" smooth="yes"/>
      <point x="453" y="110"/>
      <point x="509" y="156"/>
      <point x="509" y="234" type="curve" smooth="yes"/>
      <point x="509" y="240" type="line"/>
      <point x="642" y="240" type="line"/>
      <point x="642" y="234" type="line" smooth="yes"/>
      <point x="642" y="81"/>
      <point x="535" y="-11"/>
      <point x="357" y="-11" type="curve" smooth="yes"/>
      <point x="163" y="-11"/>
      <point x="56" y="99"/>
      <point x="56" y="299" type="curve" smooth="yes"/>
      <point x="56" y="410" type="line" smooth="yes"/>
      <point x="56" y="611"/>
      <point x="163" y="720"/>
      <point x="358" y="720" type="curve" smooth="yes"/>
      <point x="534" y="720"/>
      <point x="643" y="627"/>
      <point x="643" y="478" type="curve" smooth="yes"/>
      <point x="643" y="470" type="line"/>
      <point x="509" y="470" type="line"/>
      <point x="509" y="474" type="line" smooth="yes"/>
      <point x="509" y="553"/>
      <point x="452" y="602"/>
      <point x="358" y="602" type="curve" smooth="yes"/>
      <point x="249" y="602"/>
      <point x="195" y="542"/>
    </contour>
  </outline>
</glyph>
<glyph name="Tshecyr" format="2">
  <advance width="803"/>
  <unicode hex="040B"/>
  <outline>
    <contour>
      <point x="218" y="0" type="line"/>
      <point x="352" y="0" type="line"/>
      <point x="352" y="590" type="line"/>
      <point x="564" y="590" type="line"/>
      <point x="564" y="707" type="line"/>
      <point x="6" y="707" type="line"/>
      <point x="6" y="590" type="line"/>
      <point x="218" y="590" type="line"/>
    </contour>
    <contour>
      <point x="758" y="0" type="line"/>
      <point x="758" y="222" type="line" smooth="yes"/>
      <point x="758" y="360"/>
      <point x="664" y="459"/>
      <point x="500" y="459" type="curve" smooth="yes"/>
      <point x="455" y="459"/>
      <point x="397" y="452"/>
      <point x="352" y="439" type="curve"/>
      <point x="315" y="439" type="line"/>
      <point x="315" y="321" type="line"/>
      <point x="352" y="321" type="line"/>
      <point x="401" y="334"/>
      <point x="462" y="341"/>
      <point x="511" y="341" type="curve" smooth="yes"/>
      <point x="586" y="341"/>
      <point x="624" y="288"/>
      <point x="624" y="221" type="curve" smooth="yes"/>
      <point x="624" y="0" type="line"/>
    </contour>
  </outline>
</glyph>
<glyph name="Gecyr" format="2">
  <advance width="595"/>
  <unicode hex="0413"/>
  <guideline x="319" y="0" angle="90" name="h1"/>
  <anchor x="319" y="776" name="top"/>
  <outline>
    <contour>
      <point x="60" y="707" type="line"/>
      <point x="565" y="707" type="line"/>
      <point x="565" y="590" type="line"/>
      <point x="195" y="590" type="line"/>
      <point x="195" y="0" type="line"/>
      <point x="60" y="0" type="line"/>
    </contour>
  </outline>
</glyph>
<glyph name="Decyr" format="2">
  <advance width="755"/>
  <unicode hex="0414"/>
  <outline>
    <contour>
      <point x="410" y="0" type="line"/>
      <point x="610" y="0" type="line"/>
      <point x="610" y="-170" type="line"/>
      <point x="745" y="-170" type="line"/>
      <point x="745" y="117" type="line"/>
      <point x="410" y="117" type="line"/>
    </contour>
    <contour>
      <point x="93" y="0" type="line"/>
      <point x="220" y="75"/>
      <point x="311" y="224"/>
      <point x="325" y="377" type="curve" smooth="yes"/>
      <point x="355" y="707" type="line"/>
      <point x="220" y="707" type="line"/>
      <point x="190" y="439" type="line" smooth="yes"/>
      <point x="172" y="277"/>
      <point x="130" y="173"/>
      <point x="60" y="117" type="curve"/>
    </contour>
    <contour>
      <point x="540" y="0" type="line"/>
      <point x="675" y="0" type="line"/>
      <point x="675" y="707" type="line"/>
      <point x="540" y="707" type="line"/>
    </contour>
    <contour>
      <point x="225" y="590" type="line"/>
      <point x="585" y="590" type="line"/>
      <point x="585" y="707" type="line"/>
      <point x="225" y="707" type="line"/>
    </contour>
    <contour>
      <point x="290" y="0" type="line"/>
      <point x="430" y="0" type="line"/>
      <point x="430" y="117" type="line"/>
      <point x="290" y="117" type="line"/>
    </contour>
    <contour>
      <point x="10" y="-170" type="line"/>
      <point x="145" y="-170" type="line"/>
      <point x="145" y="0" type="line"/>
      <point x="310" y="0" type="line"/>
      <point x="310" y="117" type="line"/>
      <point x="10" y="117" type="line"/>
    </contour>
  </outline>
</glyph>
<glyph name="Zhecyr" format="2">
  <advance width="1141"/>
  <unicode hex="0416"/>
  <outline>
    <contour>
      <point x="618" y="299" type="line"/>
      <point x="820" y="299" type="line"/>
      <point x="820" y="416" type="line"/>
      <point x="618" y="416" type="line"/>
    </contour>
    <contour>
      <point x="503" y="0" type="line"/>
      <point x="638" y="0" type="line"/>
      <point x="638" y="707" type="line"/>
      <point x="503" y="707" type="line"/>
    </contour>
    <contour>
      <point x="968" y="0" type="line"/>
      <point x="1131" y="0" type="line"/>
      <point x="837" y="410" type="line"/>
      <point x="747" y="314" type="line"/>
    </contour>
    <contour>
      <point x="719" y="311" type="line"/>
      <point x="778" y="311" type="line"/>
      <point x="1111" y="707" type="line"/>
      <point x="939" y="707" type="line"/>
      <point x="719" y="406" type="line"/>
    </contour>
    <contour>
      <point x="321" y="299" type="line"/>
      <point x="523" y="299" type="line"/>
      <point x="523" y="416" type="line"/>
      <point x="321" y="416" type="line"/>
    </contour>
    <contour>
      <point x="503" y="0" type="line"/>
      <point x="638" y="0" type="line"/>
      <point x="638" y="707" type="line"/>
      <point x="503" y="707" type="line"/>
    </contour>
    <contour>
      <point x="10" y="0" type="line"/>
      <point x="173" y="0" type="line"/>
      <point x="394" y="314" type="line"/>
      <point x="304" y="410" type="line"/>
    </contour>
    <contour>
      <point x="363" y="311" type="line"/>
      <point x="422" y="311" type="line"/>
      <point x="422" y="406" type="line"/>
      <point x="202" y="707" type="line"/>
      <point x="30" y="707" type="line"/>
    </contour>
  </outline>
</glyph>
<glyph name="Icyr" format="2">
  <advance width="707"/>
  <unicode hex="0418"/>
  <guideline x="350" y="0" angle="90" name="h1"/>
  <anchor x="350" y="776" name="top"/>
  <outline>
    <contour>
      <point x="60" y="0" type="line"/>
      <point x="209" y="0" type="line"/>
      <point x="473" y="424" type="line" smooth="yes"/>
      <point x="490" y="452"/>
      <point x="510" y="498"/>
      <point x="519" y="530" type="curve"/>
      <point x="522" y="530" type="line"/>
      <point x="514" y="498"/>
      <point x="511" y="477"/>
      <point x="511" y="440" type="curve" smooth="yes"/>
      <point x="511" y="0" type="line"/>
      <point x="646" y="0" type="line"/>
      <point x="646" y="707" type="line"/>
      <point x="497" y="707" type="line"/>
      <point x="235" y="285" type="line" smooth="yes"/>
      <point x="217" y="257"/>
      <point x="197" y="214"/>
      <point x="187" y="177" type="curve"/>
      <point x="184" y="177" type="line"/>
      <point x="192" y="216"/>
      <point x="195" y="231"/>
      <point x="195" y="267" type="curve" smooth="yes"/>
      <point x="195" y="707" type="line"/>
      <point x="60" y="707" type="line"/>
    </contour>
  </outline>
</glyph>
<glyph name="Elcyr" format="2">
  <advance width="695"/>
  <unicode hex="041B"/>
  <guideline x="285" y="377" angle="84.8056"/>
  <guideline x="180" y="707" angle="263.613"/>
  <outline>
    <contour>
      <point x="180" y="707" type="line"/>
      <point x="635" y="707" type="line"/>
      <point x="635" y="0" type="line"/>
      <point x="500" y="0" type="line"/>
      <point x="500" y="590" type="line"/>
      <point x="304" y="590" type="line"/>
      <point x="271" y="224" type="line" smooth="yes"/>
      <point x="259" y="88"/>
      <point x="188" y="0"/>
      <point x="20" y="0" type="curve"/>
      <point x="20" y="117" type="line"/>
      <point x="100" y="117"/>
      <point x="122" y="189"/>
      <point x="131" y="265" type="curve" smooth="yes"/>
    </contour>
  </outline>
</glyph>
<glyph name="Ucyr" format="2">
  <advance width="621"/>
  <unicode hex="0423"/>
  <guideline x="313" y="0" angle="90" name="h1"/>
  <anchor x="313" y="776" name="top"/>
  <outline>
    <contour>
      <point x="123" y="0" type="line"/>
      <point x="154" y="0" type="line" smooth="yes"/>
      <point x="232" y="0"/>
      <point x="264" y="27"/>
      <point x="323" y="141" type="curve" smooth="yes"/>
      <point x="618" y="707" type="line"/>
      <point x="467" y="707" type="line"/>
      <point x="269" y="280" type="line"/>
      <point x="287" y="315" type="line"/>
      <point x="237" y="220" type="line" smooth="yes"/>
      <point x="200" y="148"/>
      <point x="173" y="118"/>
      <point x="148" y="118" type="curve" smooth="yes"/>
      <point x="123" y="118" type="line"/>
    </contour>
    <contour>
      <point x="249" y="220" type="line"/>
      <point x="332" y="347" type="line"/>
      <point x="156" y="707" type="line"/>
      <point x="4" y="707" type="line"/>
    </contour>
  </outline>
</glyph>
<glyph name="Efcyr" format="2">
  <advance width="785"/>
  <unicode hex="0424"/>
  <guideline x="608" y="0" angle="90" name="h1"/>
  <anchor x="608" y="776" name="top"/>
  <outline>
    <contour>
      <point x="350" y="170" type="line"/>
      <point x="242" y="170"/>
      <point x="192" y="212"/>
      <point x="192" y="341" type="curve" smooth="yes"/>
      <point x="192" y="362" type="line" smooth="yes"/>
      <point x="192" y="498"/>
      <point x="241" y="542"/>
      <point x="350" y="542" type="curve"/>
      <point x="350" y="660" type="line"/>
      <point x="159" y="660"/>
      <point x="57" y="570"/>
      <point x="57" y="370" type="curve" smooth="yes"/>
      <point x="57" y="339" type="line" smooth="yes"/>
      <point x="57" y="139"/>
      <point x="162" y="49"/>
      <point x="350" y="49" type="curve"/>
    </contour>
    <contour>
      <point x="330" y="0" type="line"/>
      <point x="464" y="0" type="line"/>
      <point x="464" y="707" type="line"/>
      <point x="330" y="707" type="line"/>
    </contour>
    <contour>
      <point x="444" y="49" type="line"/>
      <point x="634" y="49"/>
      <point x="738" y="141"/>
      <point x="738" y="339" type="curve" smooth="yes"/>
      <point x="738" y="370" type="line" smooth="yes"/>
      <point x="738" y="569"/>
      <point x="632" y="660"/>
      <point x="444" y="660" type="curve"/>
      <point x="444" y="542" type="line"/>
      <point x="550" y="542"/>
      <point x="604" y="495"/>
      <point x="604" y="362" type="curve" smooth="yes"/>
      <point x="604" y="341" type="line" smooth="yes"/>
      <point x="604" y="214"/>
      <point x="550" y="170"/>
      <point x="444" y="170" type="curve"/>
    </contour>
  </outline>
</glyph>
<glyph name="Shacyr" format="2">
  <advance width="824"/>
  <unicode hex="0428"/>
  <guideline x="60" y="0" angle="90"/>
  <guideline x="194" y="0" angle="90"/>
  <guideline x="344" y="0" angle="90"/>
  <guideline x="478" y="0" angle="90"/>
  <guideline x="629" y="0" angle="90"/>
  <guideline x="763" y="0" angle="90"/>
  <guideline x="0" y="707" angle="0"/>
  <anchor x="677" y="695" name="top"/>
  <outline>
    <contour>
      <point x="60" y="707" type="line"/>
      <point x="194" y="707" type="line"/>
      <point x="194" y="117" type="line"/>
      <point x="344" y="117" type="line"/>
      <point x="344" y="707" type="line"/>
      <point x="478" y="707" type="line"/>
      <point x="478" y="117" type="line"/>
      <point x="629" y="117" type="line"/>
      <point x="629" y="707" type="line"/>
      <point x="763" y="707" type="line"/>
      <point x="763" y="0" type="line"/>
      <point x="60" y="0" type="line"/>
    </contour>
  </outline>
</glyph>
<glyph name="Shchacyr" format="2">
  <advance width="890"/>
  <unicode hex="0429"/>
  <outline>
    <contour>
      <point x="60" y="0" type="line"/>
      <point x="194" y="0" type="line"/>
      <point x="194" y="707" type="line"/>
      <point x="60" y="707" type="line"/>
    </contour>
    <contour>
      <point x="344" y="0" type="line"/>
      <point x="478" y="0" type="line"/>
      <point x="478" y="707" type="line"/>
      <point x="344" y="707" type="line"/>
    </contour>
    <contour>
      <point x="629" y="0" type="line"/>
      <point x="763" y="0" type="line"/>
      <point x="763" y="707" type="line"/>
      <point x="629" y="707" type="line"/>
    </contour>
    <contour>
      <point x="127" y="0" type="line"/>
      <point x="717" y="0" type="line"/>
      <point x="717" y="117" type="line"/>
      <point x="127" y="117" type="line"/>
    </contour>
    <contour>
      <point x="545" y="0" type="line"/>
      <point x="745" y="0" type="line"/>
      <point x="745" y="-170" type="line"/>
      <point x="880" y="-170" type="line"/>
      <point x="880" y="117" type="line"/>
      <point x="545" y="117" type="line"/>
    </contour>
  </outline>
</glyph>
<glyph name="Hardcyr" format="2">
  <advance width="783"/>
  <unicode hex="042A"/>
  <outline>
    <contour>
      <point x="295" y="0" type="line"/>
      <point x="486" y="0" type="line" smooth="yes"/>
      <point x="646" y="0"/>
      <point x="738" y="81"/>
      <point x="738" y="222" type="curve" smooth="yes"/>
      <point x="738" y="360"/>
      <point x="644" y="439"/>
      <point x="480" y="439" type="curve" smooth="yes"/>
      <point x="295" y="439" type="line"/>
      <point x="295" y="321" type="line"/>
      <point x="491" y="321" type="line" smooth="yes"/>
      <point x="566" y="321"/>
      <point x="604" y="288"/>
      <point x="604" y="221" type="curve" smooth="yes"/>
      <point x="604" y="153"/>
      <point x="565" y="117"/>
      <point x="491" y="117" type="curve" smooth="yes"/>
      <point x="295" y="117" type="line"/>
    </contour>
    <contour>
      <point x="180" y="0" type="line"/>
      <point x="315" y="0" type="line"/>
      <point x="315" y="707" type="line"/>
      <point x="180" y="707" type="line"/>
    </contour>
    <contour>
      <point x="0" y="590" type="line"/>
      <point x="247" y="590" type="line"/>
      <point x="247" y="707" type="line"/>
      <point x="0" y="707" type="line"/>
    </contour>
  </outline>
</glyph>
<glyph name="Softcyr" format="2">
  <advance width="663"/>
  <unicode hex="042C"/>
  <guideline x="311" y="0" angle="90" name="h1"/>
  <guideline x="311" y="0" angle="90" name="h1"/>
  <anchor x="311" y="776" name="top"/>
  <outline>
    <contour>
      <point x="60" y="707" type="line"/>
      <point x="195" y="707" type="line"/>
      <point x="195" y="439" type="line"/>
      <point x="360" y="439" type="line" smooth="yes"/>
      <point x="524" y="439"/>
      <point x="618" y="360"/>
      <point x="618" y="222" type="curve" smooth="yes"/>
      <point x="618" y="81"/>
      <point x="526" y="0"/>
      <point x="366" y="0" type="curve" smooth="yes"/>
      <point x="60" y="0" type="line"/>
    </contour>
    <contour>
      <point x="371" y="321" type="curve" smooth="yes"/>
      <point x="195" y="321" type="line"/>
      <point x="195" y="117" type="line"/>
      <point x="371" y="117" type="line" smooth="yes"/>
      <point x="445" y="117"/>
      <point x="484" y="153"/>
      <point x="484" y="221" type="curve" smooth="yes"/>
      <point x="484" y="288"/>
      <point x="446" y="321"/>
    </contour>
  </outline>
</glyph>
<glyph name="Ereversedcyr" format="2">
  <advance width="679"/>
  <unicode hex="042D"/>
  <guideline x="332" y="0" angle="90" name="h1"/>
  <anchor x="332" y="776" name="top"/>
  <outline>
    <component base="C" xScale="-1" xOffset="689"/>
    <contour>
      <point x="244" y="299" type="line"/>
      <point x="582" y="299" type="line"/>
      <point x="582" y="416" type="line"/>
      <point x="244" y="416" type="line"/>
    </contour>
  </outline>
</glyph>
<glyph name="Yacyr" format="2">
  <advance width="679"/>
  <unicode hex="042F"/>
  <guideline x="379" y="0" angle="90" name="h1"/>
  <anchor x="379" y="776" name="top"/>
  <outline>
    <contour>
      <point x="311" y="707" type="curve"/>
      <point x="619" y="707" type="line"/>
      <point x="619" y="0" type="line"/>
      <point x="484" y="0" type="line"/>
      <point x="484" y="278" type="line"/>
      <point x="344" y="278" type="line"/>
      <point x="190" y="0" type="line"/>
      <point x="30" y="0" type="line"/>
      <point x="205" y="294" type="line"/>
      <point x="158" y="309"/>
      <point x="122" y="333"/>
      <point x="98" y="366" type="curve" smooth="yes"/>
      <point x="74" y="399"/>
      <point x="62" y="441"/>
      <point x="62" y="492" type="curve" smooth="yes"/>
      <point x="62" y="561"/>
      <point x="84" y="615"/>
      <point x="128" y="652" type="curve" smooth="yes"/>
      <point x="173" y="689"/>
      <point x="234" y="707"/>
    </contour>
    <contour>
      <point x="484" y="392" type="line"/>
      <point x="484" y="590" type="line"/>
      <point x="307" y="590" type="line" smooth="yes"/>
      <point x="272" y="590"/>
      <point x="244" y="582"/>
      <point x="224" y="566" type="curve" smooth="yes"/>
      <point x="205" y="549"/>
      <point x="195" y="525"/>
      <point x="195" y="492" type="curve" smooth="yes"/>
      <point x="195" y="463"/>
      <point x="202" y="440"/>
      <point x="216" y="423" type="curve" smooth="yes"/>
      <point x="235" y="402"/>
      <point x="265" y="392"/>
      <point x="307" y="392" type="curve" smooth="yes"/>
    </contour>
  </outline>
</glyph>
<glyph name="becyr" format="2">
  <advance width="576"/>
  <unicode hex="0431"/>
  <outline>
    <contour>
      <point x="290" y="-9" type="curve" smooth="yes"/>
      <point x="443" y="-9"/>
      <point x="530" y="80"/>
      <point x="530" y="236" type="curve" smooth="yes"/>
      <point x="530" y="243" type="line" smooth="yes"/>
      <point x="530" y="398"/>
      <point x="443" y="486"/>
      <point x="317" y="486" type="curve" smooth="yes"/>
      <point x="256" y="486"/>
      <point x="203" y="462"/>
      <point x="173" y="422" type="curve"/>
      <point x="47" y="422" type="line"/>
      <point x="47" y="236" type="line" smooth="yes"/>
      <point x="47" y="80"/>
      <point x="135" y="-9"/>
    </contour>
    <contour>
      <point x="290" y="104" type="curve" smooth="yes"/>
      <point x="212" y="104"/>
      <point x="173" y="149"/>
      <point x="173" y="237" type="curve" smooth="yes"/>
      <point x="173" y="241" type="line" smooth="yes"/>
      <point x="173" y="329"/>
      <point x="212" y="373"/>
      <point x="290" y="373" type="curve" smooth="yes"/>
      <point x="366" y="373"/>
      <point x="404" y="329"/>
      <point x="404" y="241" type="curve" smooth="yes"/>
      <point x="404" y="237" type="line" smooth="yes"/>
      <point x="404" y="149"/>
      <point x="366" y="104"/>
    </contour>
    <contour>
      <point x="47" y="366" type="line"/>
      <point x="170" y="366" type="line"/>
      <point x="170" y="422" type="line" smooth="yes"/>
      <point x="170" y="552"/>
      <point x="374" y="515"/>
      <point x="458" y="570" type="curve"/>
      <point x="458" y="707" type="line"/>
      <point x="303" y="621"/>
      <point x="47" y="710"/>
      <point x="47" y="422" type="curve" smooth="yes"/>
    </contour>
  </outline>
</glyph>
<glyph name="vecyr" format="2">
  <advance width="583"/>
  <unicode hex="0432"/>
  <outline>
    <contour>
      <point x="161" y="0" type="line"/>
      <point x="348" y="0" type="line" smooth="yes"/>
      <point x="457" y="0"/>
      <point x="528" y="65"/>
      <point x="528" y="165" type="curve" smooth="yes"/>
      <point x="528" y="226"/>
      <point x="487" y="276"/>
      <point x="425" y="289" type="curve"/>
      <point x="425" y="292" type="line"/>
      <point x="482" y="308"/>
      <point x="498" y="356"/>
      <point x="498" y="407" type="curve" smooth="yes"/>
      <point x="498" y="485"/>
      <point x="438" y="532"/>
      <point x="339" y="532" type="curve" smooth="yes"/>
      <point x="161" y="532" type="line"/>
      <point x="161" y="419" type="line"/>
      <point x="313" y="419" type="line" smooth="yes"/>
      <point x="349" y="419"/>
      <point x="372" y="404"/>
      <point x="372" y="380" type="curve" smooth="yes"/>
      <point x="372" y="347"/>
      <point x="349" y="327"/>
      <point x="313" y="327" type="curve" smooth="yes"/>
      <point x="161" y="327" type="line"/>
      <point x="161" y="239" type="line"/>
      <point x="343" y="239" type="line" smooth="yes"/>
      <point x="379" y="239"/>
      <point x="402" y="215"/>
      <point x="402" y="178" type="curve" smooth="yes"/>
      <point x="402" y="138"/>
      <point x="379" y="112"/>
      <point x="343" y="112" type="curve" smooth="yes"/>
      <point x="161" y="112" type="line"/>
    </contour>
    <contour>
      <point x="55" y="0" type="line"/>
      <point x="181" y="0" type="line"/>
      <point x="181" y="532" type="line"/>
      <point x="55" y="532" type="line"/>
    </contour>
  </outline>
</glyph>
<glyph name="decyr" format="2">
  <advance width="668"/>
  <unicode hex="0434"/>
  <outline>
    <contour>
      <point x="522" y="-170" type="line"/>
      <point x="648" y="-170" type="line"/>
      <point x="648" y="113" type="line"/>
      <point x="502" y="113" type="line"/>
      <point x="502" y="0" type="line"/>
      <point x="522" y="0" type="line"/>
    </contour>
    <contour>
      <point x="20" y="-170" type="line"/>
      <point x="146" y="-170" type="line"/>
      <point x="146" y="113" type="line"/>
      <point x="20" y="113" type="line"/>
    </contour>
    <contour>
      <point x="437" y="0" type="line"/>
      <point x="563" y="0" type="line"/>
      <point x="563" y="532" type="line"/>
      <point x="437" y="532" type="line"/>
    </contour>
    <contour>
      <point x="68" y="113" type="curve"/>
      <point x="100" y="0" type="line"/>
      <point x="224" y="0"/>
      <point x="259" y="158"/>
      <point x="266" y="260" type="curve" smooth="yes"/>
      <point x="286" y="532" type="line"/>
      <point x="160" y="532" type="line"/>
      <point x="140" y="292" type="line" smooth="yes"/>
      <point x="135" y="228"/>
      <point x="115" y="113"/>
    </contour>
    <contour>
      <point x="57" y="0" type="line"/>
      <point x="457" y="0" type="line"/>
      <point x="457" y="113" type="line"/>
      <point x="57" y="113" type="line"/>
    </contour>
    <contour>
      <point x="196" y="419" type="line"/>
      <point x="457" y="419" type="line"/>
      <point x="457" y="532" type="line"/>
      <point x="196" y="532" type="line"/>
    </contour>
  </outline>
</glyph>
<glyph name="icyr" format="2">
  <advance width="635"/>
  <unicode hex="0438"/>
  <guideline x="313" y="0" angle="90" name="h1"/>
  <anchor x="313" y="602" name="top"/>
  <outline>
    <contour>
      <point x="454" y="0" type="line"/>
      <point x="580" y="0" type="line"/>
      <point x="580" y="532" type="line"/>
      <point x="472" y="532" type="line"/>
      <point x="467" y="492"/>
      <point x="454" y="362"/>
      <point x="454" y="322" type="curve" smooth="yes"/>
    </contour>
    <contour>
      <point x="55" y="0" type="line"/>
      <point x="163" y="0" type="line"/>
      <point x="174" y="40"/>
      <point x="181" y="170"/>
      <point x="181" y="210" type="curve" smooth="yes"/>
      <point x="181" y="532" type="line"/>
      <point x="55" y="532" type="line"/>
    </contour>
    <contour>
      <point x="127" y="0" type="line"/>
      <point x="191" y="0" type="line"/>
      <point x="431" y="322" type="line" smooth="yes"/>
      <point x="445" y="341"/>
      <point x="451" y="353"/>
      <point x="454" y="368" type="curve"/>
      <point x="508" y="368" type="line"/>
      <point x="508" y="532" type="line"/>
      <point x="444" y="532" type="line"/>
      <point x="204" y="210" type="line" smooth="yes"/>
      <point x="194" y="196"/>
      <point x="186" y="179"/>
      <point x="181" y="164" type="curve"/>
      <point x="127" y="164" type="line"/>
    </contour>
  </outline>
</glyph>
<glyph name="kacyr" format="2">
  <advance width="585"/>
  <unicode hex="043A"/>
  <guideline x="266" y="0" angle="90" name="h1"/>
  <anchor x="266" y="602" name="top"/>
  <outline>
    <contour>
      <point x="55" y="0" type="line"/>
      <point x="182" y="0" type="line"/>
      <point x="182" y="532" type="line"/>
      <point x="55" y="532" type="line"/>
    </contour>
    <contour>
      <point x="191" y="313" type="line"/>
      <point x="310" y="269" type="line"/>
      <point x="561" y="532" type="line"/>
      <point x="398" y="532" type="line"/>
    </contour>
    <contour>
      <point x="416" y="0" type="line"/>
      <point x="577" y="0" type="line"/>
      <point x="338" y="338" type="line"/>
      <point x="250" y="252" type="line"/>
    </contour>
    <contour>
      <point x="161" y="227" type="line"/>
      <point x="321" y="227" type="line"/>
      <point x="321" y="339" type="line"/>
      <point x="161" y="339" type="line"/>
    </contour>
  </outline>
</glyph>
<glyph name="elcyr" format="2">
  <advance width="560"/>
  <unicode hex="043B"/>
  <guideline x="102" y="532" angle="265.236"/>
  <guideline x="208" y="260" angle="85.7946"/>
  <outline>
    <contour>
      <point x="102" y="532" type="line"/>
      <point x="505" y="532" type="line"/>
      <point x="505" y="0" type="line"/>
      <point x="379" y="0" type="line"/>
      <point x="379" y="419" type="line"/>
      <point x="220" y="419" type="line"/>
      <point x="200" y="156" type="line" smooth="yes"/>
      <point x="193" y="54"/>
      <point x="126" y="0"/>
      <point x="10" y="0" type="curve"/>
      <point x="10" y="113" type="line"/>
      <point x="53" y="113"/>
      <point x="69" y="137"/>
      <point x="75" y="209" type="curve" smooth="yes"/>
    </contour>
  </outline>
</glyph>
<glyph name="emcyr" format="2">
  <advance width="815"/>
  <unicode hex="043C"/>
  <outline>
    <contour>
      <point x="55" y="0" type="line"/>
      <point x="181" y="0" type="line"/>
      <point x="181" y="368" type="line"/>
      <point x="364" y="60" type="line"/>
      <point x="451" y="60" type="line"/>
      <point x="634" y="368" type="line"/>
      <point x="634" y="0" type="line"/>
      <point x="760" y="0" type="line"/>
      <point x="760" y="532" type="line"/>
      <point x="591" y="532" type="line"/>
      <point x="408" y="224" type="line"/>
      <point x="224" y="532" type="line"/>
      <point x="55" y="532" type="line"/>
    </contour>
  </outline>
</glyph>
<glyph name="pecyr" format="2">
  <advance width="573"/>
  <unicode hex="043F"/>
  <outline>
    <contour>
      <point x="55" y="532" type="line"/>
      <point x="518" y="532" type="line"/>
      <point x="518" y="0" type="line"/>
      <point x="392" y="0" type="line"/>
      <point x="392" y="419" type="line"/>
      <point x="181" y="419" type="line"/>
      <point x="181" y="0" type="line"/>
      <point x="55" y="0" type="line"/>
    </contour>
  </outline>
</glyph>
<glyph name="tsecyr" format="2">
  <advance width="623"/>
  <unicode hex="0446"/>
  <outline>
    <contour>
      <point x="402" y="0" type="line"/>
      <point x="528" y="0" type="line"/>
      <point x="528" y="532" type="line"/>
      <point x="402" y="532" type="line"/>
    </contour>
    <contour>
      <point x="55" y="0" type="line"/>
      <point x="181" y="0" type="line"/>
      <point x="181" y="532" type="line"/>
      <point x="55" y="532" type="line"/>
    </contour>
    <contour>
      <point x="161" y="0" type="line"/>
      <point x="422" y="0" type="line"/>
      <point x="422" y="113" type="line"/>
      <point x="161" y="113" type="line"/>
    </contour>
    <contour>
      <point x="487" y="-170" type="line"/>
      <point x="613" y="-170" type="line"/>
      <point x="613" y="113" type="line"/>
      <point x="467" y="113" type="line"/>
      <point x="467" y="0" type="line"/>
      <point x="487" y="0" type="line"/>
    </contour>
  </outline>
</glyph>
<glyph name="shchacyr" format="2">
  <advance width="896"/>
  <unicode hex="0449"/>
  <outline>
    <contour>
      <point x="471" y="0" type="line"/>
      <point x="732" y="0" type="line"/>
      <point x="732" y="112" type="line"/>
      <point x="471" y="112" type="line"/>
    </contour>
    <contour>
      <point x="161" y="0" type="line"/>
      <point x="422" y="0" type="line"/>
      <point x="422" y="112" type="line"/>
      <point x="161" y="112" type="line"/>
    </contour>
    <contour>
      <point x="675" y="0" type="line"/>
      <point x="801" y="0" type="line"/>
      <point x="801" y="532" type="line"/>
      <point x="675" y="532" type="line"/>
    </contour>
    <contour>
      <point x="365" y="0" type="line"/>
      <point x="491" y="0" type="line"/>
      <point x="491" y="532" type="line"/>
      <point x="365" y="532" type="line"/>
    </contour>
    <contour>
      <point x="55" y="0" type="line"/>
      <point x="181" y="0" type="line"/>
      <point x="181" y="532" type="line"/>
      <point x="55" y="532" type="line"/>
    </contour>
    <contour>
      <point x="760" y="-170" type="line"/>
      <point x="886" y="-170" type="line"/>
      <point x="886" y="113" type="line"/>
      <point x="740" y="113" type="line"/>
      <point x="740" y="0" type="line"/>
      <point x="760" y="0" type="line"/>
    </contour>
  </outline>
</glyph>
<glyph name="hardcyr" format="2">
  <advance width="684"/>
  <unicode hex="044A"/>
  <outline>
    <contour>
      <point x="165" y="0" type="line"/>
      <point x="291" y="0" type="line"/>
      <point x="291" y="532" type="line"/>
      <point x="165" y="532" type="line"/>
    </contour>
    <contour>
      <point x="225" y="419" type="line"/>
      <point x="225" y="532" type="line"/>
      <point x="0" y="532" type="line"/>
      <point x="0" y="419" type="line"/>
    </contour>
    <contour>
      <point x="271" y="0" type="line"/>
      <point x="458" y="0" type="line" smooth="yes"/>
      <point x="567" y="0"/>
      <point x="638" y="67"/>
      <point x="638" y="172" type="curve" smooth="yes"/>
      <point x="638" y="256"/>
      <point x="586" y="339"/>
      <point x="453" y="339" type="curve" smooth="yes"/>
      <point x="271" y="339" type="line"/>
      <point x="271" y="227" type="line"/>
      <point x="453" y="227" type="line" smooth="yes"/>
      <point x="489" y="227"/>
      <point x="512" y="205"/>
      <point x="512" y="171" type="curve" smooth="yes"/>
      <point x="512" y="135"/>
      <point x="489" y="112"/>
      <point x="453" y="112" type="curve" smooth="yes"/>
      <point x="271" y="112" type="line"/>
    </contour>
  </outline>
</glyph>
<glyph name="ereversedcyr" format="2">
  <advance width="571"/>
  <unicode hex="044D"/>
  <guideline x="289" y="0" angle="90" name="h1"/>
  <anchor x="289" y="602" name="top"/>
  <outline>
    <component base="c" xScale="-1" xOffset="572"/>
    <contour>
      <point x="252" y="227" type="line"/>
      <point x="422" y="227" type="line"/>
      <point x="422" y="339" type="line"/>
      <point x="252" y="339" type="line"/>
    </contour>
  </outline>
</glyph>
<glyph name="yacyr" format="2">
  <advance width="583"/>
  <unicode hex="044F"/>
  <guideline x="304" y="0" angle="90" name="h1"/>
  <anchor x="304" y="602" name="top"/>
  <outline>
    <contour>
      <point x="245" y="532" type="curve"/>
      <point x="528" y="532" type="line"/>
      <point x="528" y="0" type="line"/>
      <point x="402" y="0" type="line"/>
      <point x="402" y="139" type="line"/>
      <point x="252" y="139" type="line"/>
      <point x="191" y="0" type="line"/>
      <point x="61" y="0" type="line"/>
      <point x="148" y="172" type="line"/>
      <point x="81" y="212"/>
      <point x="55" y="274"/>
      <point x="55" y="344" type="curve" smooth="yes"/>
      <point x="55" y="454"/>
      <point x="134" y="532"/>
    </contour>
    <contour>
      <point x="250" y="252" type="curve" smooth="yes"/>
      <point x="402" y="252" type="line"/>
      <point x="402" y="419" type="line"/>
      <point x="250" y="419" type="line" smooth="yes"/>
      <point x="214" y="419"/>
      <point x="181" y="384"/>
      <point x="181" y="342" type="curve" smooth="yes"/>
      <point x="181" y="271"/>
      <point x="214" y="252"/>
    </contour>
  </outline>
</glyph>
<glyph name="eukrcyr" format="2">
  <advance width="572"/>
  <unicode hex="0454"/>
  <outline>
    <contour>
      <point x="401" y="190" type="line"/>
      <point x="401" y="186" type="line" smooth="yes"/>
      <point x="401" y="135"/>
      <point x="361" y="104"/>
      <point x="296" y="104" type="curve" smooth="yes"/>
      <point x="212" y="104"/>
      <point x="173" y="146"/>
      <point x="173" y="237" type="curve" smooth="yes"/>
      <point x="173" y="297" type="line" smooth="yes"/>
      <point x="173" y="386"/>
      <point x="212" y="429"/>
      <point x="293" y="429" type="curve" smooth="yes"/>
      <point x="361" y="429"/>
      <point x="402" y="396"/>
      <point x="402" y="343" type="curve" smooth="yes"/>
      <point x="402" y="339" type="line"/>
      <point x="526" y="339" type="line"/>
      <point x="526" y="345" type="line" smooth="yes"/>
      <point x="526" y="469"/>
      <point x="438" y="542"/>
      <point x="290" y="542" type="curve" smooth="yes"/>
      <point x="135" y="542"/>
      <point x="47" y="454"/>
      <point x="47" y="299" type="curve" smooth="yes"/>
      <point x="47" y="236" type="line" smooth="yes"/>
      <point x="47" y="80"/>
      <point x="135" y="-9"/>
      <point x="290" y="-9" type="curve" smooth="yes"/>
      <point x="436" y="-9"/>
      <point x="525" y="64"/>
      <point x="525" y="186" type="curve" smooth="yes"/>
      <point x="525" y="190" type="line"/>
    </contour>
    <contour>
      <point x="320" y="339" type="line"/>
      <point x="150" y="339" type="line"/>
      <point x="150" y="227" type="line"/>
      <point x="320" y="227" type="line"/>
    </contour>
  </outline>
</glyph>
<glyph name="ljecyr" format="2">
  <advance width="864"/>
  <unicode hex="0459"/>
  <outline>
    <contour>
      <point x="102" y="532" type="line"/>
      <point x="505" y="532" type="line"/>
      <point x="505" y="339" type="line"/>
      <point x="633" y="339" type="line" smooth="yes"/>
      <point x="766" y="339"/>
      <point x="818" y="256"/>
      <point x="818" y="172" type="curve" smooth="yes"/>
      <point x="818" y="67"/>
      <point x="747" y="0"/>
      <point x="638" y="0" type="curve" smooth="yes"/>
      <point x="379" y="0" type="line"/>
      <point x="379" y="419" type="line"/>
      <point x="220" y="419" type="line"/>
      <point x="200" y="156" type="line" smooth="yes"/>
      <point x="193" y="54"/>
      <point x="126" y="0"/>
      <point x="10" y="0" type="curve"/>
      <point x="10" y="113" type="line"/>
      <point x="53" y="113"/>
      <point x="69" y="137"/>
      <point x="75" y="209" type="curve" smooth="yes"/>
    </contour>
    <contour>
      <point x="633" y="227" type="curve" smooth="yes"/>
      <point x="505" y="227" type="line"/>
      <point x="505" y="112" type="line"/>
      <point x="633" y="112" type="line" smooth="yes"/>
      <point x="669" y="112"/>
      <point x="692" y="135"/>
      <point x="692" y="171" type="curve" smooth="yes"/>
      <point x="692" y="205"/>
      <point x="669" y="227"/>
    </contour>
  </outline>
</glyph>
<glyph name="dzhecyr" format="2">
  <advance width="583"/>
  <unicode hex="045F"/>
  <outline>
    <contour>
      <point x="55" y="532" type="line"/>
      <point x="181" y="532" type="line"/>
      <point x="181" y="113" type="line"/>
      <point x="402" y="113" type="line"/>
      <point x="402" y="532" type="line"/>
      <point x="528" y="532" type="line"/>
      <point x="528" y="0" type="line"/>
      <point x="354" y="0" type="line"/>
      <point x="354" y="-170" type="line"/>
      <point x="228" y="-170" type="line"/>
      <point x="228" y="0" type="line"/>
      <point x="55" y="0" type="line"/>
    </contour>
  </outline>
</glyph>
<glyph name="gheupturncyrillic" format="2">
  <advance width="403"/>
  <unicode hex="0491"/>
  <outline>
    <component base="gecyr"/>
    <contour>
      <point x="285" y="532" type="line"/>
      <point x="285" y="687" type="line"/>
      <point x="385" y="687" type="line"/>
      <point x="385" y="532" type="line"/>
    </contour>
  </outline>
</glyph>
<glyph name="Germandbls" format="2">
  <advance width="823"/>
  <unicode hex="1E9E"/>
  <outline>
    <contour>
      <point x="60" y="1" type="line"/>
      <point x="60" y="477" type="line" smooth="yes"/>
      <point x="60" y="556"/>
      <point x="74" y="609"/>
      <point x="109" y="647" type="curve" smooth="yes"/>
      <point x="142" y="681"/>
      <point x="196" y="715"/>
      <point x="352" y="714" type="curve" smooth="yes"/>
      <point x="462" y="714"/>
      <point x="611" y="697"/>
      <point x="718" y="588" type="curve"/>
      <point x="541" y="423" type="line"/>
      <point x="613" y="417"/>
      <point x="668" y="404"/>
      <point x="705" y="371" type="curve" smooth="yes"/>
      <point x="751" y="331"/>
      <point x="773" y="276"/>
      <point x="773" y="211" type="curve" smooth="yes"/>
      <point x="773" y="147"/>
      <point x="760" y="96"/>
      <point x="715" y="53" type="curve" smooth="yes"/>
      <point x="668" y="9"/>
      <point x="611" y="-3"/>
      <point x="452" y="-3" type="curve" smooth="yes"/>
      <point x="312" y="-3" type="line"/>
      <point x="312" y="122" type="line"/>
      <point x="480" y="122" type="line" smooth="yes"/>
      <point x="548" y="122"/>
      <point x="595" y="126"/>
      <point x="615" y="136" type="curve" smooth="yes"/>
      <point x="635" y="149"/>
      <point x="646" y="165"/>
      <point x="646" y="212" type="curve" smooth="yes"/>
      <point x="646" y="275"/>
      <point x="615" y="301"/>
      <point x="476" y="301" type="curve" smooth="yes"/>
      <point x="331" y="301" type="line"/>
      <point x="331" y="406" type="line"/>
      <point x="528" y="570" type="line"/>
      <point x="461" y="595"/>
      <point x="419" y="594"/>
      <point x="351" y="594" type="curve" smooth="yes"/>
      <point x="276" y="594"/>
      <point x="238" y="586"/>
      <point x="218" y="572" type="curve" smooth="yes"/>
      <point x="195" y="551"/>
      <point x="187" y="519"/>
      <point x="187" y="479" type="curve" smooth="yes"/>
      <point x="187" y="1" type="line"/>
    </contour>
  </outline>
</glyph>
<glyph name="trademark" format="2">
  <advance width="914"/>
  <unicode hex="2122"/>
  <outline>
    <contour>
      <point x="159" y="624" type="line"/>
      <point x="31" y="624" type="line"/>
      <point x="31" y="707" type="line"/>
      <point x="380" y="707" type="line"/>
      <point x="380" y="624" type="line"/>
      <point x="252" y="624" type="line"/>
      <point x="252" y="303" type="line"/>
      <point x="159" y="303" type="line"/>
    </contour>
    <contour>
      <point x="437" y="707" type="line"/>
      <point x="523" y="707" type="line"/>
      <point x="645" y="466" type="line"/>
      <point x="649" y="466" type="line"/>
      <point x="769" y="707" type="line"/>
      <point x="854" y="707" type="line"/>
      <point x="854" y="303" type="line"/>
      <point x="768" y="303" type="line"/>
      <point x="768" y="529" type="line"/>
      <point x="764" y="529" type="line"/>
      <point x="678" y="361" type="line"/>
      <point x="614" y="361" type="line"/>
      <point x="526" y="529" type="line"/>
      <point x="524" y="529" type="line"/>
      <point x="524" y="303" type="line"/>
      <point x="437" y="303" type="line"/>
    </contour>
  </outline>
</glyph>
<glyph name="Elcyr.loclBGR" format="2">
  <advance width="697"/>
  <outline>
    <contour>
      <point x="4" y="0" type="line"/>
      <point x="147" y="0" type="line"/>
      <point x="348" y="537" type="line"/>
      <point x="550" y="0" type="line"/>
      <point x="693" y="0" type="line"/>
      <point x="403" y="707" type="line"/>
      <point x="294" y="707" type="line"/>
    </contour>
  </outline>
</glyph>
<glyph name="elcyr.loclBGR" format="2">
  <advance width="551"/>
  <outline>
    <contour>
      <point x="329" y="532" type="line"/>
      <point x="224" y="532" type="line"/>
      <point x="9" y="0" type="line"/>
      <point x="146" y="0" type="line"/>
      <point x="276" y="361" type="line"/>
      <point x="406" y="0" type="line"/>
      <point x="543" y="0" type="line"/>
    </contour>
  </outline>
</glyph>
<glyph name="hardcyr.loclBGR" format="2">
  <advance width="684"/>
  <outline>
    <contour>
      <point x="165" y="197" type="line"/>
      <point x="291" y="197" type="line"/>
      <point x="291" y="532" type="line"/>
      <point x="165" y="532" type="line"/>
    </contour>
    <contour>
      <point x="225" y="419" type="line"/>
      <point x="225" y="532" type="line"/>
      <point x="0" y="532" type="line"/>
      <point x="0" y="419" type="line"/>
    </contour>
    <contour>
      <point x="165" y="197" type="line"/>
      <point x="165" y="74"/>
      <point x="269" y="-9"/>
      <point x="404" y="-9" type="curve" smooth="yes"/>
      <point x="546" y="-9"/>
      <point x="638" y="76"/>
      <point x="638" y="207" type="curve" smooth="yes"/>
      <point x="638" y="332"/>
      <point x="553" y="418"/>
      <point x="427" y="418" type="curve" smooth="yes"/>
      <point x="367" y="418"/>
      <point x="331" y="408"/>
      <point x="271" y="389" type="curve"/>
      <point x="271" y="277" type="line"/>
      <point x="331" y="298"/>
      <point x="367" y="305"/>
      <point x="411" y="305" type="curve" smooth="yes"/>
      <point x="474" y="305"/>
      <point x="512" y="268"/>
      <point x="512" y="208" type="curve" smooth="yes"/>
      <point x="512" y="147"/>
      <point x="470" y="104"/>
      <point x="410" y="104" type="curve" smooth="yes"/>
      <point x="336" y="104"/>
      <point x="291" y="138"/>
      <point x="291" y="197" type="curve"/>
    </contour>
  </outline>
</glyph>
<glyph name="icyr.loclBGR" format="2">
  <advance width="585"/>
  <guideline x="293" y="0" angle="90" name="h1"/>
  <anchor x="293" y="602" name="top"/>
  <outline>
    <contour>
      <point x="404" y="272" type="line"/>
      <point x="404" y="229" type="line" smooth="yes"/>
      <point x="404" y="143"/>
      <point x="369" y="104"/>
      <point x="293" y="104" type="curve" smooth="yes"/>
      <point x="218" y="104"/>
      <point x="181" y="144"/>
      <point x="181" y="229" type="curve" smooth="yes"/>
      <point x="181" y="532" type="line"/>
      <point x="55" y="532" type="line"/>
      <point x="55" y="223" type="line" smooth="yes"/>
      <point x="55" y="70"/>
      <point x="125" y="-9"/>
      <point x="260" y="-9" type="curve" smooth="yes"/>
      <point x="383" y="-9"/>
      <point x="446" y="79"/>
      <point x="446" y="250" type="curve" smooth="yes"/>
      <point x="446" y="272" type="line"/>
    </contour>
    <contour>
      <point x="408" y="0" type="line"/>
      <point x="530" y="0" type="line"/>
      <point x="530" y="532" type="line"/>
      <point x="404" y="532" type="line"/>
      <point x="404" y="65" type="line"/>
      <point x="408" y="65" type="line"/>
    </contour>
  </outline>
</glyph>
<glyph name="kacyr.loclBGR" format="2">
  <advance width="590"/>
  <outline>
    <contour>
      <point x="55" y="0" type="line"/>
      <point x="182" y="0" type="line"/>
      <point x="182" y="707" type="line"/>
      <point x="55" y="707" type="line"/>
    </contour>
    <contour>
      <point x="191" y="313" type="line"/>
      <point x="310" y="269" type="line"/>
      <point x="561" y="532" type="line"/>
      <point x="398" y="532" type="line"/>
    </contour>
    <contour>
      <point x="416" y="0" type="line"/>
      <point x="577" y="0" type="line"/>
      <point x="338" y="338" type="line"/>
      <point x="250" y="252" type="line"/>
    </contour>
    <contour>
      <point x="161" y="227" type="line"/>
      <point x="321" y="227" type="line"/>
      <point x="321" y="339" type="line"/>
      <point x="161" y="339" type="line"/>
    </contour>
  </outline>
</glyph>
<glyph name="nine.dnom" format="2">
  <advance width="372"/>
  <outline>
    <contour>
      <point x="189" y="438" type="curve" smooth="yes"/>
      <point x="226" y="438"/>
      <point x="359" y="428"/>
      <point x="359" y="299" type="curve" smooth="yes"/>
      <point x="359" y="286" type="line" smooth="yes"/>
      <point x="359" y="252"/>
      <point x="346" y="217"/>
      <point x="323" y="181" type="curve" smooth="yes"/>
      <point x="203" y="-11" type="line"/>
      <point x="83" y="-11" type="line"/>
      <point x="186" y="154" type="line"/>
      <point x="179" y="153"/>
      <point x="171" y="152"/>
      <point x="164" y="152" type="curve" smooth="yes"/>
      <point x="164" y="152" type="line"/>
      <point x="164" y="152" type="line" smooth="yes"/>
      <point x="79" y="152"/>
      <point x="20" y="204"/>
      <point x="20" y="284" type="curve" smooth="yes"/>
      <point x="20" y="297" type="line" smooth="yes"/>
      <point x="20" y="383"/>
      <point x="82" y="438"/>
    </contour>
    <contour>
      <point x="131" y="289" type="line" smooth="yes"/>
      <point x="131" y="270"/>
      <point x="139" y="241"/>
      <point x="189" y="241" type="curve" smooth="yes"/>
      <point x="205" y="241"/>
      <point x="248" y="244"/>
      <point x="248" y="288" type="curve" smooth="yes"/>
      <point x="248" y="300" type="line" smooth="yes"/>
      <point x="248" y="319"/>
      <point x="239" y="347"/>
      <point x="189" y="347" type="curve" smooth="yes"/>
      <point x="174" y="347"/>
      <point x="131" y="344"/>
      <point x="131" y="299" type="curve" smooth="yes"/>
    </contour>
  </outline>
</glyph>
<glyph name="seven.tosf" format="2">
  <advance width="562"/>
  <outline>
    <contour>
      <point x="513" y="533" type="line"/>
      <point x="513" y="416" type="line"/>
      <point x="264" y="-168" type="line"/>
      <point x="127" y="-168" type="line"/>
      <point x="378" y="416" type="line"/>
      <point x="55" y="416" type="line"/>
      <point x="55" y="533" type="line"/>
    </contour>
  </outline>
</glyph>
<glyph name="shacyr.loclBGR" format="2">
  <advance width="917"/>
  <outline>
    <contour>
      <point x="55" y="532" type="line"/>
      <point x="182" y="532" type="line"/>
      <point x="182" y="226" type="line" smooth="yes"/>
      <point x="182" y="147"/>
      <point x="217" y="106"/>
      <point x="284" y="106" type="curve" smooth="yes"/>
      <point x="354" y="106"/>
      <point x="395" y="152"/>
      <point x="395" y="229" type="curve" smooth="yes"/>
      <point x="395" y="532" type="line"/>
      <point x="522" y="532" type="line"/>
      <point x="522" y="221" type="line" smooth="yes"/>
      <point x="522" y="146"/>
      <point x="557" y="106"/>
      <point x="623" y="106" type="curve" smooth="yes"/>
      <point x="694" y="106"/>
      <point x="735" y="152"/>
      <point x="735" y="231" type="curve" smooth="yes"/>
      <point x="735" y="532" type="line"/>
      <point x="862" y="532" type="line"/>
      <point x="862" y="0" type="line"/>
      <point x="738" y="0" type="line"/>
      <point x="738" y="57" type="line"/>
      <point x="702" y="17"/>
      <point x="646" y="-7"/>
      <point x="587" y="-7" type="curve" smooth="yes"/>
      <point x="521" y="-7"/>
      <point x="467" y="18"/>
      <point x="433" y="65" type="curve"/>
      <point x="388" y="17"/>
      <point x="331" y="-7"/>
      <point x="262" y="-7" type="curve" smooth="yes"/>
      <point x="132" y="-7"/>
      <point x="55" y="70"/>
      <point x="55" y="200" type="curve" smooth="yes"/>
    </contour>
  </outline>
</glyph>
<glyph name="shchacyr.loclBGR" format="2">
  <advance width="946"/>
  <outline>
    <component base="shacyr.loclBGR"/>
    <contour>
      <point x="820" y="-170" type="line"/>
      <point x="946" y="-170" type="line"/>
      <point x="946" y="113" type="line"/>
      <point x="800" y="113" type="line"/>
      <point x="800" y="0" type="line"/>
      <point x="820" y="0" type="line"/>
    </contour>
  </outline>
</glyph>
<glyph name="softcyr.loclBGR" format="2">
  <advance width="583"/>
  <outline>
    <contour>
      <point x="301" y="305" type="curve" smooth="yes"/>
      <point x="262" y="305"/>
      <point x="229" y="300"/>
      <point x="181" y="284" type="curve"/>
      <point x="181" y="197" type="line"/>
      <point x="181" y="138"/>
      <point x="226" y="104"/>
      <point x="300" y="104" type="curve" smooth="yes"/>
      <point x="360" y="104"/>
      <point x="402" y="147"/>
      <point x="402" y="208" type="curve" smooth="yes"/>
      <point x="402" y="268"/>
      <point x="364" y="305"/>
    </contour>
    <contour>
      <point x="55" y="532" type="line"/>
      <point x="181" y="532" type="line"/>
      <point x="181" y="395" type="line"/>
      <point x="230" y="410"/>
      <point x="264" y="418"/>
      <point x="317" y="418" type="curve" smooth="yes"/>
      <point x="443" y="418"/>
      <point x="528" y="332"/>
      <point x="528" y="207" type="curve" smooth="yes"/>
      <point x="528" y="76"/>
      <point x="436" y="-9"/>
      <point x="294" y="-9" type="curve" smooth="yes"/>
      <point x="159" y="-9"/>
      <point x="55" y="74"/>
      <point x="55" y="197" type="curve"/>
    </contour>
  </outline>
</glyph>
<glyph name="three.tosf" format="2">
  <advance width="562"/>
  <outline>
    <contour>
      <point x="46" y="14" type="curve" smooth="yes"/>
      <point x="46" y="25" type="line"/>
      <point x="171" y="25" type="line"/>
      <point x="171" y="17" type="line" smooth="yes"/>
      <point x="171" y="-8"/>
      <point x="180" y="-28"/>
      <point x="199" y="-41" type="curve" smooth="yes"/>
      <point x="217" y="-54"/>
      <point x="244" y="-61"/>
      <point x="279" y="-61" type="curve" smooth="yes"/>
      <point x="313" y="-61"/>
      <point x="339" y="-53"/>
      <point x="358" y="-37" type="curve" smooth="yes"/>
      <point x="376" y="-21"/>
      <point x="385" y="1"/>
      <point x="385" y="30" type="curve" smooth="yes"/>
      <point x="385" y="44" type="line" smooth="yes"/>
      <point x="385" y="80"/>
      <point x="375" y="106"/>
      <point x="356" y="121" type="curve" smooth="yes"/>
      <point x="337" y="136"/>
      <point x="307" y="144"/>
      <point x="267" y="144" type="curve" smooth="yes"/>
      <point x="227" y="144" type="line"/>
      <point x="227" y="254" type="line"/>
      <point x="266" y="254" type="line" smooth="yes"/>
      <point x="301" y="254"/>
      <point x="327" y="262"/>
      <point x="346" y="277" type="curve" smooth="yes"/>
      <point x="364" y="292"/>
      <point x="373" y="314"/>
      <point x="373" y="341" type="curve" smooth="yes"/>
      <point x="373" y="355" type="line" smooth="yes"/>
      <point x="373" y="380"/>
      <point x="365" y="400"/>
      <point x="348" y="414" type="curve" smooth="yes"/>
      <point x="331" y="428"/>
      <point x="306" y="435"/>
      <point x="275" y="435" type="curve" smooth="yes"/>
      <point x="243" y="435"/>
      <point x="218" y="428"/>
      <point x="201" y="415" type="curve" smooth="yes"/>
      <point x="184" y="401"/>
      <point x="175" y="381"/>
      <point x="175" y="356" type="curve" smooth="yes"/>
      <point x="175" y="348" type="line"/>
      <point x="52" y="348" type="line"/>
      <point x="52" y="356" type="line" smooth="yes"/>
      <point x="52" y="416"/>
      <point x="72" y="462"/>
      <point x="111" y="494" type="curve" smooth="yes"/>
      <point x="150" y="526"/>
      <point x="205" y="542"/>
      <point x="278" y="542" type="curve" smooth="yes"/>
      <point x="349" y="542"/>
      <point x="404" y="527"/>
      <point x="445" y="496" type="curve" smooth="yes"/>
      <point x="485" y="465"/>
      <point x="505" y="423"/>
      <point x="505" y="369" type="curve" smooth="yes"/>
      <point x="505" y="353" type="line" smooth="yes"/>
      <point x="505" y="321"/>
      <point x="497" y="293"/>
      <point x="480" y="269" type="curve" smooth="yes"/>
      <point x="463" y="244"/>
      <point x="439" y="225"/>
      <point x="407" y="211" type="curve"/>
      <point x="443" y="199"/>
      <point x="470" y="179"/>
      <point x="489" y="152" type="curve" smooth="yes"/>
      <point x="508" y="124"/>
      <point x="517" y="88"/>
      <point x="517" y="44" type="curve" smooth="yes"/>
      <point x="517" y="29" type="line" smooth="yes"/>
      <point x="517" y="-32"/>
      <point x="496" y="-80"/>
      <point x="453" y="-115" type="curve" smooth="yes"/>
      <point x="410" y="-150"/>
      <point x="353" y="-168"/>
      <point x="281" y="-168" type="curve" smooth="yes"/>
      <point x="205" y="-168"/>
      <point x="147" y="-152"/>
      <point x="107" y="-121" type="curve" smooth="yes"/>
      <point x="66" y="-90"/>
      <point x="46" y="-45"/>
    </contour>
  </outline>
</glyph>
<glyph name="vecyr.loclBGR" format="2">
  <advance width="583"/>
  <outline>
    <contour>
      <point x="55" y="214" type="line"/>
      <point x="55" y="82"/>
      <point x="156" y="-9"/>
      <point x="302" y="-9" type="curve" smooth="yes"/>
      <point x="439" y="-9"/>
      <point x="528" y="99"/>
      <point x="528" y="230" type="curve" smooth="yes"/>
      <point x="528" y="300"/>
      <point x="489" y="359"/>
      <point x="425" y="389" type="curve"/>
      <point x="425" y="392" type="line"/>
      <point x="470" y="421"/>
      <point x="498" y="471"/>
      <point x="498" y="523" type="curve" smooth="yes"/>
      <point x="498" y="633"/>
      <point x="413" y="707"/>
      <point x="281" y="707" type="curve" smooth="yes"/>
      <point x="148" y="707"/>
      <point x="55" y="617"/>
      <point x="55" y="481" type="curve"/>
      <point x="181" y="481" type="line"/>
      <point x="181" y="550"/>
      <point x="220" y="594"/>
      <point x="280" y="594" type="curve" smooth="yes"/>
      <point x="335" y="594"/>
      <point x="372" y="558"/>
      <point x="372" y="505" type="curve" smooth="yes"/>
      <point x="372" y="458"/>
      <point x="338" y="427"/>
      <point x="287" y="427" type="curve" smooth="yes"/>
      <point x="161" y="427" type="line"/>
      <point x="161" y="339" type="line"/>
      <point x="292" y="339" type="line" smooth="yes"/>
      <point x="352" y="339"/>
      <point x="402" y="295"/>
      <point x="402" y="223" type="curve" smooth="yes"/>
      <point x="402" y="152"/>
      <point x="361" y="103"/>
      <point x="297" y="103" type="curve" smooth="yes"/>
      <point x="228" y="103"/>
      <point x="181" y="148"/>
      <point x="181" y="214" type="curve"/>
    </contour>
    <contour>
      <point x="55" y="214" type="line"/>
      <point x="181" y="214" type="line"/>
      <point x="181" y="481" type="line"/>
      <point x="55" y="481" type="line"/>
    </contour>
  </outline>
</glyph>
<glyph name="zhecyr.loclBGR" format="2">
  <advance width="933"/>
  <outline>
    <contour>
      <point x="403" y="707" type="line"/>
      <point x="530" y="707" type="line"/>
      <point x="530" y="339" type="line"/>
      <point x="564" y="339" type="line"/>
      <point x="746" y="532" type="line"/>
      <point x="909" y="532" type="line"/>
      <point x="702" y="315" type="line"/>
      <point x="925" y="0" type="line"/>
      <point x="764" y="0" type="line"/>
      <point x="614" y="227" type="line"/>
      <point x="530" y="227" type="line"/>
      <point x="530" y="0" type="line"/>
      <point x="403" y="0" type="line"/>
      <point x="403" y="227" type="line"/>
      <point x="319" y="227" type="line"/>
      <point x="169" y="0" type="line"/>
      <point x="8" y="0" type="line"/>
      <point x="231" y="315" type="line"/>
      <point x="24" y="532" type="line"/>
      <point x="187" y="532" type="line"/>
      <point x="369" y="339" type="line"/>
      <point x="403" y="339" type="line"/>
    </contour>
  </outline>
</glyph>
